<svg width="300" height="107" viewBox="0 0 300 107" fill="none" xmlns="http://www.w3.org/2000/svg">
    <g clip-path="url(#clip0_3058_50177)">
        <path d="M25.2074 1.52275C21.5508 2.97355 20.233 6.05316 19.568 9.58499C18.7495 13.9046 19.3408 18.1506 20.4356 22.327C22.9054 31.7398 27.6302 39.8266 34.8883 46.3828C36.2715 47.633 37.8349 48.6336 39.3736 49.667C40.2372 50.2481 40.763 50.0967 41.2153 49.1247C43.5193 44.2383 45.0008 39.1656 45.4899 33.7451C46.1185 27.1768 45.0621 20.5567 42.4205 14.5103C40.8855 10.9401 38.7271 7.67174 36.0464 4.85815C34.6407 3.40433 32.9259 2.28538 31.029 1.58414C30.5134 1.37952 29.8197 1.35087 29.924 0.507812H25.7865C26.1712 1.16466 25.633 1.35291 25.2074 1.52275Z" fill="#F48120"/>
        <path d="M25.3431 1.07314C22.8549 1.65632 21.3632 3.37926 20.3462 5.57489C18.834 8.83662 18.5577 12.3091 18.879 15.8328C19.2808 20.1633 20.322 24.4104 21.9688 28.4356C25.4086 36.9112 30.5099 44.1181 38.1179 49.3729C40.6552 51.1265 40.7678 51.1163 42.0528 48.2352C47.7046 35.5484 47.7537 22.9987 40.8987 10.7171C38.8177 6.9909 36.2108 3.67188 32.3045 1.5847C31.5248 1.17545 30.4444 1.4476 29.9288 0.504279C29.8244 1.34733 30.5181 1.38417 31.0337 1.58061C32.9306 2.28184 34.6454 3.4008 36.0512 4.85461C38.7301 7.66531 40.8877 10.9301 42.4232 14.4966C45.0665 20.5461 46.123 27.1699 45.4926 33.7416C45.0035 39.1621 43.522 44.2348 41.2179 49.1212C40.7596 50.0932 40.2337 50.2446 39.3763 49.6635C37.8375 48.6281 36.2742 47.6295 34.8909 46.3792C27.6329 39.8312 22.9081 31.7383 20.4382 22.3235C19.3435 18.1471 18.7562 13.9011 19.5706 9.58146C20.2357 6.04962 21.5535 2.97001 25.2101 1.51922C25.6357 1.34938 26.1739 1.16113 25.7892 0.496094C25.7959 0.629674 25.7546 0.761248 25.6728 0.867064C25.591 0.972881 25.4741 1.04597 25.3431 1.07314Z" fill="#F48120"/>
        <path d="M297.43 50.0692C295.493 44.5184 293.553 38.9662 291.611 33.4127C289.616 27.7118 287.657 21.9966 285.63 16.3081C284.958 14.4255 283.929 14.18 282.456 15.5653C281.228 16.7255 280.262 18.1497 279.012 19.3058C277.717 20.5049 273.87 21.217 272.294 20.5213C271.547 20.1918 271.627 19.6394 271.858 19.0664C272.324 17.9387 272.868 16.8447 273.485 15.7924C273.958 14.9739 273.722 14.6854 272.816 14.6219C270.788 14.4767 270.36 14.7304 269.652 16.6887C269.618 16.7848 269.628 16.7787 269.634 16.7685C269.623 16.7916 269.611 16.8142 269.597 16.836C268.478 18.9232 268.756 20.6543 270.277 22.6064C272.509 25.4712 273.254 28.9068 273.334 32.5962C273.434 37.0857 272.399 41.0923 269.64 44.6282C266.692 48.4117 262.824 50.7076 257.977 51.6612C261.725 51.5548 265.308 51.6325 268.893 51.6059C270.886 51.5916 270.909 51.5711 271.373 49.7152C272.073 46.918 272.165 46.8402 274.997 46.8361C277.064 46.8361 279.131 46.8463 281.199 46.8361C282.489 46.8361 283.26 47.3047 283.551 48.6614C284.222 51.7942 283.976 51.6059 287.279 51.608C290.406 51.608 293.534 51.608 296.661 51.608C297.344 51.608 298.055 51.5282 298.625 52.05V51.0944C297.629 51.4525 297.612 50.5951 297.43 50.0692ZM276.894 38.2971C276.69 38.2971 276.471 38.2971 276.26 38.2971C274.539 38.3298 274.623 38.3564 275.13 36.6908C276.141 33.3677 277.144 30.0323 277.51 26.5127C278.155 29.3775 278.484 32.2545 279.45 34.9883C279.466 35.0374 279.466 35.0927 279.479 35.1438C280.25 38.3012 280.25 38.3012 276.894 38.2971Z" fill="#F38020"/>
        <path d="M297.233 47.9555C293.413 37.1786 289.621 26.3948 285.858 15.6043C285.244 13.824 283.689 13.4844 282.412 14.8881C281.341 16.0647 280.198 17.186 279.252 18.4567C278.166 19.9157 276.885 20.4232 275.053 20.3373C271.652 20.1736 271.646 20.2881 273.212 17.2679C274.777 14.2476 274.773 14.2742 271.436 14.1453C270.486 14.1064 269.979 14.3192 269.698 15.2728C269.323 16.5382 268.865 17.7775 268.327 18.9826C267.953 19.8236 268.022 20.4334 268.659 21.123C275.426 28.465 274.785 43.4988 263.408 49.3449C261.615 50.2548 259.694 50.8875 257.711 51.2213C257.302 51.293 256.758 51.3605 256.848 51.9232C256.923 52.4082 257.406 52.2731 257.773 52.2363C261.047 51.8966 264.345 52.1278 267.63 52.0992C271.346 52.0665 271.395 52.0992 272.096 48.5203C272.301 47.4726 272.774 47.2618 273.715 47.2925C275.463 47.3539 277.214 47.315 278.966 47.3171C282.686 47.3171 282.717 47.3171 283.58 50.9349C283.785 51.8332 284.184 52.134 285.094 52.1237C289.596 52.0726 294.112 52.0787 298.62 52.0665C298.049 51.5447 297.339 51.6265 296.656 51.6245C293.529 51.6245 290.4 51.6245 287.274 51.6245C283.971 51.6245 284.216 51.8107 283.545 48.6779C283.255 47.3212 282.483 46.8362 281.194 46.8526C279.125 46.8649 277.059 46.8526 274.992 46.8526C272.16 46.8526 272.068 46.9344 271.368 49.7317C270.904 51.5876 270.881 51.6081 268.888 51.6224C265.303 51.649 261.726 51.5713 257.971 51.6777C262.829 50.7241 266.696 48.4282 269.635 44.6447C272.393 41.1088 273.429 37.1022 273.328 32.6127C273.248 28.9295 272.51 25.4856 270.271 22.6229C268.751 20.6708 268.473 18.9397 269.592 16.8525C269.605 16.8307 269.618 16.8081 269.629 16.785C269.629 16.785 269.612 16.8013 269.647 16.7052C270.351 14.7469 270.783 14.4932 272.811 14.6384C273.717 14.7019 273.952 14.9843 273.48 15.8089C272.862 16.8612 272.319 17.9552 271.853 19.0829C271.622 19.6559 271.542 20.2083 272.289 20.5378C273.864 21.2335 277.711 20.5214 279.007 19.3223C280.257 18.1662 281.215 16.742 282.451 15.5818C283.924 14.1964 284.953 14.442 285.624 16.3246C287.652 22.0131 289.61 27.7283 291.605 33.4292C293.545 38.98 295.485 44.5321 297.425 50.0857C297.607 50.6116 297.63 51.4587 298.61 51.1088C297.511 50.3394 297.613 49.0278 297.233 47.9555Z" fill="#F38020"/>
        <path d="M0.812547 42.8579C3.14118 46.269 6.72623 47.7689 10.4136 48.9967C16.1738 50.9222 22.1325 51.8307 28.1853 52.3259C31.6312 52.6083 35.0566 52.504 38.8033 52.5817C37.0783 51.0822 35.2217 49.7412 33.2559 48.5752C26.2045 44.5072 18.9096 41.004 10.9169 39.1624C8.89741 38.7102 6.84435 38.4234 4.77819 38.305C3.44812 38.2191 2.1467 38.5853 1.16859 39.6535C0.859609 39.9911 0.585415 40.4454 -0.00390625 40.2899V42.5182C0.368512 42.3832 0.632476 42.5858 0.812547 42.8579Z" fill="#F38120"/>
        <path d="M6.04501 47.6388C16.5382 52.4434 27.7107 53.1187 39.0061 53.0225C39.2598 53.0225 39.5647 53.0696 39.6854 52.7524C39.8061 52.4352 39.5811 52.2777 39.356 52.1283C35.6727 49.6544 32.012 47.115 27.9993 45.1567C21.0359 41.7538 13.9415 38.7397 6.09821 37.9457C3.62225 37.6961 1.45935 38.001 -0.00576425 40.2744C0.583557 40.4299 0.857763 39.9756 1.16675 39.638C2.14486 38.5698 3.44626 38.2056 4.77633 38.2895C6.84249 38.4079 8.89555 38.6947 10.9151 39.1469C18.9078 40.9885 26.2027 44.4958 33.254 48.5596C35.2198 49.7257 37.0765 51.0667 38.8014 52.5662C35.0547 52.4884 31.6293 52.5928 28.1834 52.3104C22.1306 51.8152 16.1719 50.9067 10.4117 48.9812C6.72846 47.7534 3.13932 46.2494 0.810689 42.8424C0.630618 42.5805 0.368698 42.3779 -0.0078125 42.5027C1.39182 44.9419 3.55676 46.5011 6.04501 47.6388Z" fill="#F38120"/>
        <path d="M206.819 106.049C208.252 105.153 207.775 103.78 207.771 102.499C207.771 100.594 207.64 98.6829 207.873 96.784C207.983 95.8796 207.607 95.501 206.748 95.4785C206.058 95.4601 205.368 95.4478 204.681 95.4785C204.175 95.503 203.719 95.6238 203.602 96.2131C203.486 96.8024 203.467 97.3099 204.053 97.7601C204.29 97.9645 204.481 98.2179 204.611 98.5028C204.701 98.6096 204.758 98.7405 204.775 98.8794C205.284 100.203 205.389 102.164 204.836 102.972C204.411 103.608 203.813 103.657 203.146 103.453C201.828 103.043 200.989 102.108 200.541 100.856C199.516 98.0925 199.526 95.0512 200.57 92.2945C201.319 90.2831 203.148 89.1617 205.499 89.2763C206.465 89.3234 207.187 89.2947 207.29 88.1079C207.396 86.8658 206.49 86.7615 205.653 86.6305C201.742 86.0166 198.139 88.6072 197.085 92.9964C196.41 95.8038 196.424 98.6625 197.466 101.437C198.125 103.191 199.121 104.621 200.918 105.38C201.386 105.585 201.959 105.751 201.841 106.473H206.934C206.836 106.342 206.719 106.113 206.819 106.049Z" fill="#B46D40"/>
        <path d="M208.473 104.699C208.195 102.829 208.41 100.891 208.295 98.9877C208.221 97.7395 208.999 96.1577 208.127 95.3413C207.217 94.4921 205.594 95.1633 204.29 95.0466C203.607 94.9852 202.84 95.0037 203.063 95.9408C203.267 96.7286 202.021 98.1487 203.916 98.249C204.041 98.2428 204.167 98.262 204.285 98.3056C204.403 98.3492 204.51 98.4163 204.601 98.5027C204.471 98.2178 204.28 97.9644 204.043 97.76C203.458 97.3098 203.478 96.8003 203.593 96.213C203.707 95.6257 204.166 95.5029 204.671 95.4784C205.359 95.4477 206.048 95.46 206.738 95.4784C207.597 95.5009 207.965 95.8876 207.863 96.7839C207.63 98.6828 207.757 100.594 207.761 102.499C207.761 103.78 208.234 105.159 206.809 106.049C206.709 106.113 206.824 106.342 206.92 106.473C207.028 105.55 208.694 106.18 208.473 104.699Z" fill="#B46D40"/>
        <path d="M200.913 105.38C199.116 104.621 198.12 103.19 197.461 101.437C196.419 98.6621 196.405 95.8035 197.08 92.996C198.134 88.6068 201.738 86.0183 205.648 86.6301C206.489 86.7611 207.396 86.8655 207.285 88.1075C207.183 89.2944 206.467 89.323 205.495 89.276C203.143 89.1614 201.314 90.2827 200.565 92.2942C199.521 95.0508 199.511 98.0921 200.536 100.856C200.985 102.108 201.824 103.043 203.141 103.452C203.798 103.657 204.406 103.608 204.832 102.972C205.374 102.163 205.28 100.203 204.77 98.879C204.789 99.0036 204.796 99.1297 204.791 99.2555C204.768 100.209 204.752 101.163 204.758 102.12C204.758 103.176 204.234 103.418 203.326 103.115C201.871 102.634 201.075 101.519 200.725 100.129C200.226 98.2811 200.132 96.3468 200.451 94.4591C201.132 90.6101 202.562 89.4867 206.407 89.896C207.371 89.9983 207.655 89.5604 207.635 88.7337C207.614 87.907 208.558 86.8184 207.044 86.3764C205.247 85.8547 203.325 85.9702 201.603 86.7034C199.882 87.4365 198.467 88.7423 197.598 90.3993C196.512 92.4231 196.139 94.6146 196.235 96.8369C196.407 100.8 197.035 104.613 201.59 106.086C201.703 106.123 201.756 106.342 201.838 106.477C201.955 105.75 201.382 105.576 200.913 105.38Z" fill="#B46D40"/>
        <path d="M260.273 104.196C260.259 98.7918 260.273 93.3877 260.273 87.9856C260.273 87.0791 260.222 86.2769 258.98 86.2565C257.957 86.2401 257.343 86.5511 257.388 87.6888C257.429 88.9596 257.316 90.2303 257.275 91.499C257.232 92.8168 256.772 93.0357 255.558 92.4668C253.993 91.7322 252.622 92.1047 251.54 93.5595C249.289 96.5757 249.612 102.496 252.153 105.278C252.467 105.62 252.906 105.892 252.767 106.475H255.313C255.54 106.259 255.734 105.976 256.004 105.839C256.459 105.61 256.645 104.777 257.232 105.031C257.779 105.27 257.437 105.982 257.549 106.475H260.733C260.144 105.802 260.273 104.978 260.273 104.196ZM256.559 102.303C256.33 102.835 256.013 103.357 255.313 103.353C254.699 103.353 254.318 102.944 254.11 102.461C253.148 100.21 253.291 97.9344 254.091 95.6836C254.177 95.4267 254.342 95.2037 254.563 95.0466C254.783 94.8896 255.048 94.8067 255.319 94.8098C255.982 94.8262 256.32 95.3214 256.547 95.8861C256.972 96.9543 256.776 98.0736 256.829 99.1745C256.764 100.22 256.997 101.298 256.559 102.303Z" fill="#B46D40"/>
        <path d="M260.746 87.7281C260.772 86.0911 260.337 85.7371 258.728 85.7084C257.03 85.6757 256.594 86.2159 256.798 87.7547C256.908 88.4367 256.898 89.1325 256.77 89.8112C256.555 90.7463 257.281 91.7797 256.5 92.6759C254.658 90.8977 252.299 91.2845 250.907 93.5292C248.452 97.4805 249.291 103.255 252.774 106.478C252.909 105.903 252.469 105.623 252.16 105.281C249.608 102.498 249.295 96.5781 251.546 93.5619C252.628 92.1071 254.001 91.7346 255.565 92.4692C256.778 93.0381 257.238 92.8192 257.281 91.5014C257.322 90.2327 257.435 88.962 257.394 87.6912C257.357 86.5556 257.957 86.2445 258.986 86.2589C260.228 86.2793 260.279 87.0774 260.279 87.9879C260.279 93.3901 260.279 98.7942 260.279 104.198C260.279 104.98 260.15 105.805 260.738 106.476C260.721 100.225 260.652 93.9753 260.746 87.7281Z" fill="#B46D40"/>
        <path d="M158.709 98.4079C158.668 97.1433 158.777 95.8685 158.376 94.6305C157.582 92.175 155.622 91.3769 153.412 92.707C152.593 93.194 151.951 93.46 151.14 92.7459C150.861 92.4927 150.509 92.3336 150.134 92.2911C149.759 92.2485 149.38 92.3245 149.051 92.5085C148.282 92.9178 148.564 93.7117 148.642 94.3686C149.022 97.9597 148.763 101.559 148.81 105.152C148.837 105.635 148.676 106.109 148.359 106.474H151.861C152.231 105.967 152.204 105.388 152.2 104.796C152.184 102.466 152.176 100.133 152.2 97.8001C152.211 97.2196 152.284 96.6419 152.419 96.0772C152.589 95.3364 153.107 94.8044 153.852 94.8024C154.641 94.8024 155.03 95.4653 155.206 96.1549C155.318 96.6717 155.366 97.2001 155.349 97.7285C155.362 100.644 155.349 103.558 155.349 106.474H158.853C158.509 103.792 158.793 101.097 158.709 98.4079Z" fill="#B46D40"/>
        <path d="M159.145 100.816C159.167 98.6056 159.476 96.3629 158.766 94.1857C157.893 91.5031 154.921 90.6212 152.832 92.4873C152.181 93.0685 151.983 93.136 151.48 92.2827C150.804 91.147 149.532 91.7957 148.574 91.8489C147.692 91.898 148.099 92.872 148.103 93.4388C148.116 94.8712 148.232 96.2934 148.259 97.7237C148.308 100.636 148.326 103.549 148.359 106.463C148.675 106.098 148.837 105.624 148.809 105.141C148.762 101.548 149.014 97.9488 148.641 94.3576C148.57 93.7008 148.287 92.9048 149.051 92.4976C149.38 92.3136 149.759 92.2375 150.133 92.2801C150.508 92.3227 150.86 92.4818 151.14 92.7349C151.958 93.4491 152.603 93.1831 153.411 92.6961C155.621 91.366 157.581 92.1661 158.375 94.6195C158.785 95.8575 158.668 97.1323 158.709 98.3969C158.793 101.086 158.504 103.781 158.858 106.463C159.55 104.62 159.124 102.7 159.145 100.816Z" fill="#B46D40"/>
        <path d="M298.616 94.6979C297.992 94.8186 297.818 94.3276 297.566 93.9326C296.265 91.9048 294.971 91.4771 292.925 92.5841C291.92 93.1284 291.19 93.4354 290.103 92.5841C289.066 91.7656 288.178 92.4716 288.211 93.8917C288.294 97.4358 288.233 100.98 288.243 104.532C288.243 105.214 288.309 105.924 287.791 106.49H291.294C291.65 105.977 291.62 105.398 291.613 104.808C291.597 102.532 291.597 100.253 291.613 97.974C291.623 97.4465 291.677 96.9209 291.775 96.4025C291.924 95.5533 292.35 94.8023 293.277 94.8309C294.325 94.8637 294.599 95.7497 294.693 96.6419C294.742 97.1145 294.722 97.5954 294.726 98.0742C294.75 100.882 294.774 103.688 294.797 106.495C295.806 106.495 296.817 106.437 297.82 106.513C298.511 106.566 298.638 106.382 298.638 105.694C298.593 102.019 298.616 98.3587 298.616 94.6979Z" fill="#B46D40"/>
        <path d="M288.244 104.514C288.233 100.97 288.295 97.4259 288.211 93.8736C288.178 92.4535 289.066 91.7476 290.104 92.5661C291.19 93.4255 291.921 93.1186 292.925 92.5661C294.972 91.4611 296.265 91.8867 297.566 93.9146C297.818 94.3095 297.992 94.8006 298.616 94.6799C298.461 94.5428 298.238 94.4343 298.158 94.2706C296.76 91.2012 294.765 90.6385 292.082 92.5968C291.497 93.0244 291.264 93.1513 290.855 92.3062C290.28 91.1337 289.05 91.9277 288.121 91.8376C287.638 91.7906 287.546 92.3512 287.587 92.8116C287.996 97.3584 287.683 101.915 287.791 106.466C288.309 105.906 288.246 105.196 288.244 104.514Z" fill="#B46D40"/>
        <path d="M102.808 105.414C103.626 105.036 104.34 104.465 104.889 103.751C105.439 103.036 105.806 102.199 105.961 101.311C106.116 100.423 106.054 99.5109 105.779 98.6525C105.504 97.7941 105.025 97.0151 104.383 96.3823C103.94 95.9259 103.439 95.529 102.894 95.2016C102.385 94.9135 101.896 94.5937 101.428 94.2439C100.027 93.1614 99.552 91.9132 100.072 90.6834C100.518 89.6296 101.637 89.071 103.319 89.2818C104.369 89.4127 104.956 89.1856 105.073 88.0724C105.151 87.3787 104.911 86.992 104.254 86.7485C102.114 85.9627 99.0793 86.9634 97.5937 88.983C96.1798 90.9065 96.366 93.2167 98.0746 95.265C98.7695 96.1363 99.6219 96.8693 100.587 97.4258C101.486 97.8989 102.228 98.6225 102.724 99.5089C103.624 101.191 102.685 103.061 100.792 103.335C99.9499 103.457 99.0932 103.434 98.2587 103.268C97.7472 103.168 97.1763 102.922 96.8939 103.616C96.6299 104.266 96.4192 104.938 97.1313 105.484C97.4546 105.734 97.8945 105.926 97.7451 106.474H101.883C101.744 105.732 102.349 105.633 102.808 105.414Z" fill="#B56D40"/>
        <path d="M102.591 105.892C105.075 105.227 106.169 103.481 106.407 101.034C106.681 98.2264 105.414 96.2538 103.133 94.8051C102.597 94.4681 102.063 94.1271 101.533 93.7819C100.381 93.031 99.732 91.9771 100.407 90.688C101.082 89.3989 102.396 89.2556 103.61 89.6976C104.884 90.1662 105.29 89.847 105.47 88.5558C105.746 86.5832 105.781 86.4789 103.833 86.1985C101.263 85.8281 98.9216 86.3111 97.3297 88.5579C96.0426 90.3708 95.8011 92.3823 96.8856 94.3979C97.6511 95.8046 98.8112 96.9568 100.223 97.7128C101.072 98.1793 101.833 98.7359 102.333 99.5892C103.245 101.142 102.333 102.916 100.524 103.033C99.5805 103.092 98.6147 103.156 97.7225 102.677C96.9859 102.282 96.6462 102.472 96.3802 103.332C95.9075 104.85 96.1899 105.898 97.7389 106.477C97.8944 105.928 97.4545 105.736 97.125 105.487C96.4129 104.94 96.6237 104.269 96.8877 103.618C97.17 102.925 97.741 103.17 98.2525 103.27C99.0869 103.437 99.9437 103.46 100.786 103.338C102.679 103.064 103.618 101.193 102.717 99.5114C102.222 98.625 101.48 97.9014 100.581 97.4284C99.6156 96.8718 98.7633 96.1388 98.0683 95.2675C96.3679 93.2213 96.1735 90.909 97.5875 88.9855C99.0731 86.9659 102.108 85.9653 104.248 86.751C104.909 86.9945 105.148 87.3813 105.067 88.0749C104.942 89.1881 104.363 89.4152 103.313 89.2843C101.631 89.0796 100.512 89.6321 100.065 90.686C99.5457 91.9137 100.02 93.164 101.422 94.2464C101.89 94.5962 102.379 94.9161 102.887 95.2041C103.433 95.5315 103.934 95.9284 104.377 96.3848C105.019 97.0176 105.498 97.7966 105.772 98.655C106.047 99.5134 106.11 100.426 105.955 101.314C105.8 102.202 105.432 103.039 104.883 103.753C104.334 104.468 103.62 105.039 102.801 105.417C102.343 105.636 101.737 105.734 101.866 106.477C101.94 106.335 102.043 106.209 102.167 106.109C102.292 106.008 102.436 105.934 102.591 105.892Z" fill="#B56D40"/>
        <path d="M226.549 104.509C226.535 102.229 226.549 99.9496 226.549 97.6701C226.562 96.6607 226.385 95.6579 226.03 94.7132C225.348 92.9187 224.041 92.0285 222.142 91.9753C220.972 91.9473 219.807 92.1382 218.708 92.5381C218.129 92.7427 217.889 93.1929 218.078 93.8026C218.266 94.4124 218.747 94.4165 219.246 94.2897C220.239 94.0277 221.221 93.8272 222.164 94.439C222.778 94.8381 223.222 95.3578 223.122 96.1374C223.013 96.9723 222.393 97.267 221.653 97.3324C220.22 97.4573 219.005 97.9729 218.008 99.0492C216.246 100.952 216.212 103.265 217.963 105.188C218.303 105.562 218.861 105.818 218.71 106.479H221.575C222.009 105.896 222.518 105.278 223.259 105.317C223.717 105.339 223.721 106.031 223.803 106.479H226.987C226.461 105.902 226.553 105.19 226.549 104.509ZM223.087 100.924C223.022 102.188 223.101 103.629 221.387 103.653C220.159 103.67 219.977 102.522 219.954 101.55C219.936 100.43 221.333 99.0943 222.348 99.2048C223.588 99.3459 222.901 100.345 223.087 100.924Z" fill="#B46C3F"/>
        <path d="M226.96 96.9414C226.901 94.7949 226.322 92.767 224.067 91.9076C222.045 91.1362 219.974 91.5086 218.006 92.2411C216.797 92.6934 217.543 93.6735 217.68 94.4347C217.846 95.3535 218.415 95.0486 219.002 94.8337C219.895 94.4941 220.811 94.2383 221.779 94.6189C222.491 94.8992 222.97 95.3453 222.892 96.1515C222.808 97.0314 222.074 96.7941 221.536 96.8554C219.266 97.1133 217.443 98.0832 216.6 100.289C215.614 102.876 216.569 104.901 218.71 106.473C218.861 105.812 218.301 105.556 217.963 105.182C216.211 103.264 216.246 100.952 218.008 99.0429C219.004 97.9666 220.222 97.4509 221.652 97.3261C222.393 97.2606 223.013 96.9659 223.121 96.1311C223.222 95.3514 222.776 94.8317 222.164 94.4327C221.221 93.8188 220.238 94.0234 219.246 94.2833C218.747 94.4143 218.27 94.3897 218.077 93.7963C217.885 93.2029 218.129 92.7363 218.708 92.5317C219.807 92.1311 220.972 91.9396 222.141 91.9669C224.038 92.0201 225.346 92.9103 226.029 94.7048C226.385 95.6495 226.561 96.6523 226.549 97.6617C226.549 99.9412 226.537 102.221 226.549 104.5C226.549 105.182 226.461 105.894 226.987 106.465C226.985 103.295 227.046 100.115 226.96 96.9414Z" fill="#B46C3F"/>
        <path d="M137.248 105.219C138.37 104.4 139.143 103.365 139.387 102C139.796 99.6917 139.933 97.3774 139.065 95.1285C138.41 93.4342 137.224 92.2638 135.382 92.0039C133.432 91.7297 131.862 92.495 130.729 94.1095C128.973 96.608 128.938 101.558 130.649 104.089C131.015 104.608 131.48 105.051 132.016 105.393C132.394 105.646 132.892 105.851 132.742 106.473H136.246C136.119 105.689 136.81 105.536 137.248 105.219ZM134.588 103.594C133.974 103.557 133.641 103.115 133.442 102.614C132.986 101.462 132.951 100.238 132.959 99.0144C132.947 97.8439 133.008 96.6816 133.368 95.5603C133.573 94.9751 133.933 94.4922 134.596 94.4737C135.21 94.4553 135.529 94.9689 135.699 95.4744C136.489 97.7963 136.489 100.314 135.699 102.636C135.542 103.144 135.237 103.631 134.588 103.594Z" fill="#B46D40"/>
        <path d="M139.74 102.391C140.3 100.283 140.321 98.0689 139.802 95.9511C139.092 93.1375 137.346 91.5864 134.917 91.5312C132.257 91.4698 130.377 92.9165 129.468 95.728C128.111 99.9208 129.18 103.418 132.742 106.473C132.892 105.859 132.394 105.654 132.016 105.392C131.48 105.051 131.015 104.608 130.649 104.089C128.938 101.558 128.973 96.6079 130.729 94.1095C131.862 92.495 133.432 91.7297 135.382 92.0039C137.223 92.2617 138.4 93.4362 139.065 95.1285C139.933 97.3794 139.796 99.6916 139.386 102C139.143 103.365 138.363 104.408 137.248 105.219C136.81 105.536 136.118 105.689 136.256 106.473C137.852 105.485 139.255 104.328 139.74 102.391Z" fill="#B46D40"/>
        <path d="M176.486 105.721C176.989 104.149 176.596 103.675 174.988 103.898C173.273 104.133 171.851 103.54 171.143 102.297C170.396 100.984 170.805 100.151 172.319 100.03C173.586 99.9299 174.859 99.977 176.13 100.004C177.153 100.024 177.533 99.5616 177.539 98.5712C177.539 97.0202 177.494 95.5019 176.684 94.1125C175.379 91.8616 172.68 91.2948 170.545 92.7947C166.844 95.3955 166.559 102.789 170.419 105.305C170.828 105.578 171.419 105.776 171.276 106.478H176.371C176.252 106.198 176.406 105.97 176.486 105.721ZM172.927 94.4051C174.204 94.5708 174.382 95.6328 174.482 96.6416C174.638 98.2172 173.4 97.4601 172.702 97.6832C172.15 97.4356 171.09 98.1477 171.082 96.8319C171.075 95.6656 172.094 94.2966 172.927 94.4051Z" fill="#B56D40"/>
        <path d="M177.007 103.618C176.494 102.495 175.612 103.424 174.922 103.508C173.234 103.712 171.935 103.145 171.327 101.822C170.918 100.946 170.971 100.389 172.145 100.42C172.886 100.44 173.629 100.42 174.372 100.42C178.319 100.42 178.388 100.42 177.924 96.444C177.682 94.3854 176.915 92.5008 174.683 91.7581C172.579 91.0562 170.494 91.7581 169.008 93.5792C165.855 97.4671 166.87 103.577 171.069 106.061C171.182 106.127 171.214 106.329 171.274 106.471C171.417 105.769 170.832 105.57 170.416 105.298C166.557 102.781 166.841 95.3881 170.543 92.7873C172.679 91.2874 175.378 91.8481 176.682 94.1051C177.5 95.5027 177.545 97.0128 177.537 98.5639C177.537 99.5584 177.155 100.021 176.127 99.9963C174.857 99.9697 173.584 99.9226 172.317 100.023C170.803 100.144 170.394 100.976 171.141 102.29C171.849 103.532 173.271 104.132 174.986 103.89C176.594 103.669 176.987 104.142 176.483 105.713C176.404 105.963 176.25 106.19 176.367 106.467C177.529 105.734 177.472 104.633 177.007 103.618Z" fill="#B56D40"/>
        <path d="M278.045 104.16C277.343 103.251 276.469 104.09 275.675 104.004C274.253 103.849 273.126 103.294 272.512 101.958C271.963 100.753 272.307 100.137 273.635 100.037C274.963 99.9364 276.295 99.9834 277.611 100.01C278.597 100.031 279.117 99.6724 279.074 98.6309C279.045 97.9965 279.096 97.3561 279.043 96.7217C278.851 94.4708 277.468 92.5576 275.722 92.1054C273.752 91.5979 271.683 92.4328 270.474 94.5302C268.837 97.3622 268.587 100.35 270.134 103.329C270.581 104.182 271.271 104.883 272.117 105.345C272.526 105.578 273.232 105.697 272.821 106.472H277.597C277.484 105.647 278.759 105.064 278.045 104.16ZM274.398 94.4033C275.692 94.5343 275.882 95.5779 275.998 96.5908C276.172 98.0968 275.016 97.5463 274.253 97.663C273.692 97.4584 272.669 98.1439 272.606 96.8649C272.561 95.7804 273.606 94.3235 274.407 94.4033H274.398Z" fill="#B56D40"/>
        <path d="M277.783 106.22C279.351 105.778 278.847 104.651 278.547 103.704C278.164 102.502 277.319 103.341 276.705 103.448C275.371 103.671 274.135 103.562 273.239 102.445C272.864 101.979 272.359 101.383 272.674 100.741C272.946 100.19 273.625 100.452 274.129 100.421C274.71 100.387 275.293 100.421 275.876 100.421C279.914 100.421 280.131 100.227 279.429 96.1692C279.097 94.2499 278.354 92.4328 276.255 91.78C274.293 91.1661 272.512 91.559 270.996 93.0548C269.768 94.2826 269.273 95.8132 268.929 97.4256C268.127 101.176 269.478 104.242 272.676 106.053C272.778 106.11 272.784 106.333 272.834 106.48C273.243 105.705 272.541 105.586 272.13 105.353C271.284 104.892 270.594 104.19 270.147 103.337C268.6 100.348 268.852 97.3602 270.487 94.5384C271.696 92.441 273.761 91.6061 275.735 92.1136C277.481 92.5658 278.864 94.4831 279.056 96.7299C279.109 97.3642 279.056 98.0047 279.087 98.6391C279.13 99.6806 278.61 100.039 277.624 100.018C276.3 99.9916 274.964 99.9446 273.648 100.045C272.332 100.145 271.976 100.761 272.525 101.966C273.138 103.311 274.266 103.865 275.688 104.013C276.482 104.098 277.356 103.26 278.058 104.168C278.76 105.077 277.489 105.656 277.61 106.482C277.663 106.386 277.706 106.241 277.783 106.22Z" fill="#B56D40"/>
        <path d="M121.134 105.074C121.134 104.444 120.997 103.916 120.315 103.71C119.088 103.343 118.742 102.361 118.678 101.254C118.562 99.4574 118.601 97.6587 118.658 95.8601C118.687 94.9024 119.094 94.2231 120.133 94.1249C120.717 94.0655 121.361 94.0962 121.394 93.2613C121.427 92.4265 120.839 92.3323 120.238 92.2525C119.151 92.1093 118.744 91.434 118.635 90.4109C118.582 89.8891 118.901 88.9929 118.134 88.9519C117.285 88.9049 116.184 89.0911 115.883 90.0896C115.578 91.1435 115.298 91.9988 114.203 92.5677C113.589 92.891 113.731 93.8138 114.428 94.1105C115.691 94.6466 115.703 95.6555 115.703 96.7379C115.703 98.3238 115.703 99.9117 115.703 101.5C115.703 103.137 115.887 104.681 117.457 105.666C117.602 105.739 117.716 105.862 117.778 106.012C117.841 106.162 117.847 106.33 117.797 106.484H121.302C121.04 106.03 121.13 105.545 121.134 105.074Z" fill="#B56D40"/>
        <path d="M121.683 104.169C121.703 103.598 121.478 103.228 120.864 103.265C119.311 103.359 119.168 102.242 119.131 101.165C119.072 99.4179 119.199 97.6622 119.092 95.9188C119.023 94.7729 119.328 94.3227 120.494 94.5662C121.386 94.7524 122.045 94.6828 122.023 93.4489C122.002 92.348 121.92 91.4968 120.496 91.7915C119.408 92.0186 119.109 91.5132 119.09 90.5003C119.045 88.055 119.015 88.0632 116.668 88.7262C115.737 88.9881 114.967 89.293 115.25 90.5494C115.393 91.1919 115.293 91.8631 114.31 91.7874C113.209 91.7035 113.363 92.4974 113.357 93.187C113.351 93.8766 113.203 94.689 114.276 94.6194C115.207 94.56 115.284 95.0061 115.256 95.7735C115.196 97.4678 115.256 99.1662 115.233 100.863C115.194 103.148 115.297 105.352 117.795 106.473C117.846 106.319 117.839 106.151 117.777 106.001C117.715 105.851 117.601 105.728 117.455 105.655C115.886 104.671 115.692 103.13 115.702 101.489C115.712 99.9008 115.702 98.3129 115.702 96.727C115.702 95.6446 115.689 94.6358 114.427 94.0996C113.729 93.8029 113.578 92.8719 114.202 92.5568C115.297 91.9879 115.577 91.1244 115.882 90.0788C116.172 89.0802 117.273 88.894 118.133 88.941C118.9 88.982 118.581 89.8782 118.634 90.4C118.742 91.4231 119.15 92.1025 120.236 92.2416C120.838 92.3214 121.425 92.4463 121.392 93.2504C121.36 94.0546 120.715 94.0546 120.132 94.114C119.092 94.2204 118.685 94.8915 118.657 95.8492C118.599 97.6478 118.56 99.4465 118.677 101.243C118.749 102.35 119.101 103.332 120.314 103.699C121.002 103.903 121.145 104.433 121.133 105.063C121.133 105.534 121.038 106.019 121.292 106.463C121.814 105.771 121.658 104.955 121.683 104.169Z" fill="#B56D40"/>
        <path d="M238.962 99.2905C239.025 97.3936 239.539 95.7607 241.56 94.9934C242.669 94.5739 242.506 93.5876 242.291 92.6934C242.158 92.1409 241.71 92.1593 241.268 92.3394C240.762 92.544 240.433 92.9757 240.058 93.3461C239.498 93.9027 238.923 94.0112 238.532 93.2295C238.141 92.4478 237.572 92.1491 236.737 92.366C235.767 92.6177 236.033 93.4157 236.035 94.0603C236.044 97.4939 236.044 100.927 236.035 104.361C236.035 105.092 236.134 105.855 235.579 106.473H239.399C238.964 106.006 238.951 105.419 238.947 104.836C238.937 102.988 238.9 101.138 238.962 99.2905Z" fill="#B46D40"/>
        <path d="M242.166 95.4155C242.766 95.2497 242.937 94.9837 242.903 94.4312C242.868 93.8787 242.878 93.3754 242.872 92.8474C242.851 91.4744 242.385 91.2268 241.067 91.7199C240.132 92.0719 239.866 93.0561 239.144 93.6659C238.46 91.5931 238.462 91.6197 236.383 91.7609C235.628 91.8141 235.428 92.0821 235.44 92.8433C235.522 97.386 235.542 101.929 235.581 106.473C236.136 105.86 236.035 105.092 236.037 104.362C236.037 100.928 236.037 97.4945 236.037 94.0609C236.037 93.4163 235.769 92.6183 236.739 92.3666C237.574 92.1497 238.135 92.43 238.534 93.2301C238.933 94.0302 239.5 93.9033 240.06 93.3467C240.435 92.9763 240.764 92.5487 241.27 92.34C241.708 92.1599 242.156 92.1353 242.293 92.694C242.498 93.5882 242.671 94.5745 241.562 94.994C239.541 95.7613 239.027 97.3942 238.964 99.2911C238.902 101.133 238.939 102.989 238.951 104.836C238.951 105.42 238.968 106.007 239.404 106.473C239.42 103.989 239.426 101.505 239.453 99.021C239.473 96.8172 240.054 96.0028 242.166 95.4155Z" fill="#B46D40"/>
        <path d="M268.881 35.3401C269.931 25.7677 264.068 17.2287 254.682 15.1006C250.201 14.0775 245.632 14.1409 241.073 14.1593C238.689 14.1593 236.301 14.2085 233.911 14.1348C232.904 14.1041 232.64 14.4274 232.656 15.4014C232.714 18.6857 232.681 21.9719 232.679 25.2582C232.679 28.3112 232.679 28.3542 229.675 28.2396C228.609 28.2007 228.257 28.5486 228.296 29.586C228.355 31.1739 228.31 32.7659 228.312 34.3559C228.312 37.3536 228.312 37.4109 231.332 37.3311C232.511 37.3004 232.728 37.6892 232.708 38.7839C232.636 42.8089 232.691 46.838 232.663 50.8568C232.663 51.6753 232.769 52.1255 233.772 52.103C239.438 51.968 245.104 52.148 250.774 51.7326C260.956 50.998 267.909 44.1901 268.881 35.3401ZM254.922 37.769C253.559 40.247 248.484 42.3588 245.894 41.5464C245.599 41.4543 245.417 41.3274 245.417 41.0307C245.417 39.8685 245.398 38.7021 245.429 37.5398C245.448 36.8646 245.914 36.8809 246.452 36.9259C247.453 36.9955 248.472 36.8953 249.46 37.0344C250.688 37.2042 250.94 36.6661 250.866 35.602C250.801 34.6546 250.852 33.697 250.852 32.7373V32.2605C250.852 28.4054 250.852 28.3481 246.964 28.6263C245.802 28.7102 245.36 28.5895 245.407 27.282C245.509 24.4499 245.437 24.4479 248.298 24.7589C254.973 25.4894 258.196 31.8083 254.922 37.769Z" fill="#F38120"/>
        <path d="M223.037 15.1568C223.037 14.0457 222.39 14.15 221.684 14.1521C218.236 14.1521 214.786 14.2196 211.34 14.1337C210.113 14.105 209.689 14.3383 209.738 15.6765C209.943 21.4858 209.468 27.3095 210.049 33.215C208.889 32.6236 208.791 31.3938 208.242 30.4894C205.173 25.4147 202.134 20.3195 199.126 15.2039C198.705 14.4877 198.283 14.1091 197.401 14.1214C193.634 14.1705 189.869 14.1521 186.102 14.15C185.729 14.15 185.353 14.0764 185.091 14.4345C184.682 14.989 185.071 18.748 185.584 19.2738C192.634 26.4848 193.209 38.3797 186.654 45.8895C185.287 47.4569 184.86 48.9322 184.946 50.8373C184.989 51.7806 185.204 52.1244 186.223 52.106C189.722 52.0405 193.225 52.02 196.724 52.106C197.984 52.1408 198.361 51.8277 198.318 50.5324C198.095 44.7763 198.672 39.0038 198.14 33.1004C198.413 33.3938 198.659 33.7117 198.875 34.0498C201.969 39.9697 205.699 45.5089 208.967 51.3325C209.302 51.932 209.695 52.1162 210.356 52.1121C214.176 52.0794 217.995 52.0746 221.815 52.0978C222.675 52.0978 223.074 51.8932 223.016 50.9335C222.924 49.4008 222.955 47.8641 222.957 46.3233C222.975 35.9365 223.001 25.5477 223.037 15.1568Z" fill="#F38020"/>
        <path d="M188.808 33.7366C188.912 27.9068 186.878 22.9917 182.606 18.9831C180.15 16.6708 177.122 15.4431 174.024 14.3258C173.739 14.2235 173.492 14.2174 173.33 14.4752C173.168 14.733 173.355 14.9663 173.479 15.1996C174.347 16.8366 175.174 18.4736 176.084 20.0901C176.573 20.9495 176.365 21.2442 175.436 21.2196C174.507 21.1951 173.623 21.0846 172.737 21.191C171.323 21.3608 170.341 20.839 169.463 19.7586C168.077 18.0889 166.549 16.5378 165.137 14.8906C164.568 14.2276 164.013 14.0721 163.189 14.3442C161.272 14.9724 159.395 15.6477 157.623 16.6483C156.657 17.1947 156.318 17.786 156.33 18.8992C156.393 24.3586 156.438 29.82 156.33 35.2692C156.254 39.2696 156.33 43.358 153.625 46.7691C153.172 47.3401 153.737 47.6143 154.065 47.9212C157.592 51.2238 161.777 53.0552 166.588 53.489C178.086 54.5388 189.164 46.2965 188.808 33.7366ZM166.031 40.3357C164.818 39.9025 163.808 39.0359 163.195 37.9027C161.711 35.1321 161.738 32.2878 163.162 29.5295C164.361 27.209 166.672 26.2166 169.506 26.5788C170.697 26.7173 171.819 27.2162 172.719 28.009C173.62 28.8017 174.257 29.8505 174.546 31.015C174.793 31.88 174.917 32.7756 174.914 33.6752C174.914 39.0364 170.758 42.1405 166.031 40.3357Z" fill="#F38120"/>
        <path d="M126.417 14.1474C122.231 14.1679 118.043 14.1611 113.855 14.127C113.217 14.127 112.896 14.3316 112.716 14.9455C111.435 19.3101 110.174 23.683 108.828 28.0251C107.946 30.8367 107.258 33.6912 106.616 36.5948C105.969 35.3855 106.382 34.1107 106.065 32.8809C104.512 26.8424 102.65 20.8939 100.95 14.8984C100.78 14.2947 100.479 14.1515 99.9469 14.1515C95.6007 14.1515 91.2545 14.1474 86.9082 14.1392C86.1266 14.1392 85.8401 14.3807 86.1675 15.1992C87.5814 18.731 88.9892 22.2649 90.3459 25.8192C93.5367 34.168 96.7043 42.5249 99.8487 50.8899C100.203 51.8353 100.686 52.1566 101.713 52.1177C104.52 52.0297 107.332 52.0809 110.141 52.0768C113.174 52.0768 113.133 52.0604 114.199 49.2795C118.529 37.9801 122.877 26.6875 127.244 15.4018C127.569 14.5096 127.44 14.1413 126.417 14.1474Z" fill="#F38020"/>
        <path d="M153.465 21.6154C153.479 20.8092 153.055 20.711 152.337 20.7171C148.574 20.7499 144.811 20.7642 141.048 20.7007C139.925 20.6823 139.747 21.1305 139.761 22.1331C139.816 26.0537 139.798 29.9764 139.777 33.8991C139.777 35.221 139.804 36.5428 139.526 37.8565C139.045 40.1074 138.048 41.0876 136.092 41.0978C133.866 41.0978 132.885 40.2302 132.466 37.7665C131.776 33.7108 132.364 29.6183 132.149 26.2256C132.149 22.262 132.161 18.9758 132.137 15.6895C132.137 15.0756 132.529 14.2305 131.379 14.122C130.393 14.0279 129.871 14.3819 129.505 15.3662C126.534 23.3466 123.706 31.3863 120.385 39.2173C119.034 42.3992 119.749 44.648 121.596 47.0299C122.405 48.0836 123.378 49.0004 124.477 49.7453C129.644 53.2239 135.323 53.7539 141.238 52.4463C147.35 51.0958 152.806 47.0053 153.299 38.7896C153.643 33.0642 153.35 27.3367 153.465 21.6154Z" fill="#F38120"/>
        <path d="M69.7051 44.1354C72.0378 41.0251 73.1019 37.6303 72.2834 33.7363C71.8332 31.5939 70.4745 30.1881 68.3628 29.6766C65.498 28.9829 63.3965 30.2147 61.6981 32.3121C58.948 35.7069 58.0292 39.7318 57.9023 43.5768C57.9412 46.3453 58.4139 48.6187 59.0155 50.8716C59.1649 51.4323 59.3122 51.8948 60.0796 51.4855C63.681 49.5457 67.1862 47.4953 69.7051 44.1354Z" fill="#F38120"/>
        <path d="M90.0453 37.627C89.6034 37.6883 88.9711 37.7518 88.349 37.8664C84.367 38.601 80.915 40.5265 77.555 42.6689C74.2401 44.7847 71.2996 47.3589 68.3939 49.9843C68.0993 50.2523 67.4916 50.3506 67.7187 50.8867C67.9233 51.386 68.4574 51.1179 68.8523 51.0913C72.8657 50.8022 76.8306 50.037 80.6633 48.8118C84.6412 47.5104 88.4902 45.9 91.9177 43.426C93.5178 42.2679 94.2177 40.8068 93.7593 39.5382C93.1597 37.8807 91.7028 37.7415 90.0453 37.627Z" fill="#F3801F"/>
        <path d="M50.4682 35.4555C49.5838 36.1324 48.8518 36.9879 48.3197 37.9663C46.8259 40.6019 46.2018 43.4584 46.167 46.4582C46.1439 48.5218 46.5155 50.5707 47.2618 52.4947C47.4889 53.0819 47.7733 53.8493 48.6062 53.2722C53.0731 50.1742 56.1343 46.2086 56.2919 40.5159C56.3822 39.2382 56.15 37.9583 55.6166 36.7938C54.6815 34.6718 52.3201 34.0723 50.4682 35.4555Z" fill="#F3811F"/>
        <path d="M141.001 18.996C143.962 18.9408 146.923 18.9756 149.884 18.9735C153.553 18.9735 153.512 18.9735 153.477 15.3271C153.477 14.2856 153.082 14.0994 152.155 14.1423C150.361 14.2139 148.562 14.1628 146.763 14.1607H143.285C139.761 14.1607 139.806 14.1607 139.771 17.7294C139.753 18.7116 140.021 19.0145 141.001 18.996Z" fill="#F17F1F"/>
        <path d="M168.206 16.9743C169.613 18.7893 171.261 19.5034 173.491 19.2518C174.31 19.1597 174.578 19.0615 174.132 18.2286C173.256 16.61 172.362 14.9935 171.619 13.3176C170.565 10.9358 169.388 8.92637 166.239 9.97405C165.29 9.97405 164.34 9.97405 163.389 9.97405C163.086 9.97405 162.711 9.81649 162.533 10.1541C162.314 10.5634 162.685 10.8232 162.926 11.0893C164.698 13.0414 166.593 14.8973 168.206 16.9743Z" fill="#F17F1F"/>
        <path d="M273.731 19.1213C274.246 19.4978 277.705 18.9167 278.192 18.3867C279.941 16.4776 281.744 14.6114 283.412 12.6327C284.073 11.8469 285.581 11.1164 285.253 10.3061C284.887 9.42005 283.362 10.2631 282.364 10.0319C282.206 10.0135 282.047 10.0135 281.889 10.0319V10.0217C281.148 10.0217 280.395 10.1076 279.669 10.0032C278.441 9.82521 277.764 10.2631 277.232 11.4213C276.178 13.7192 274.94 15.9353 273.753 18.1739C273.579 18.5075 273.299 18.8001 273.731 19.1213Z" fill="#F17F1F"/>
        <path d="M64.9293 20.8038C64.7534 19.2732 64.9171 17.7488 64.78 16.208C64.4669 12.7293 61.5448 12.1154 58.7619 13.2041C58.1828 13.4312 58.1481 13.8855 58.3322 14.3786C58.5819 15.0191 59.0157 14.9209 59.4638 14.5832C59.9119 14.2456 60.4419 14.1985 60.978 14.2456C62.0605 14.3397 62.9363 15.4897 62.9219 16.7604C62.9097 17.9882 61.95 17.6055 61.2972 17.7058C60.681 17.7963 60.089 18.0089 59.556 18.3312C59.023 18.6535 58.5597 19.0791 58.1934 19.5828C57.827 20.0866 57.565 20.6584 57.4226 21.2648C57.2803 21.8712 57.2605 22.4999 57.3643 23.1141C57.7736 25.4795 59.9754 26.5211 61.9909 25.2688C62.4882 24.9577 62.8872 24.4318 63.321 25.3506C63.5706 25.8765 64.1538 25.7946 64.5958 25.678C65.1667 25.5245 64.9273 24.9966 64.9273 24.6037C64.9314 23.3391 64.9293 22.0705 64.9293 20.8038ZM62.8831 20.8038C62.9404 22.8869 62.173 24.3705 60.976 24.3459C59.5436 24.3152 59.3881 23.1181 59.3062 22.0827C59.1814 20.4826 60.5483 18.9806 62.0257 18.9888C63.6238 18.9949 62.5884 20.2432 62.8913 20.7997L62.8831 20.8038Z" fill="#7D7D7D"/>
        <path d="M77.4835 19.5402C77.6554 19.4563 77.8928 19.5279 78.1117 19.5259C81.5065 19.5259 81.6354 19.3561 80.7596 15.9715C80.7187 15.8181 80.6675 15.6667 80.6286 15.5132C80.2194 13.9212 79.2351 12.806 77.592 12.6996C76 12.5973 74.7641 13.4608 74.054 14.9218C73.0739 16.9374 72.8692 19.0819 73.256 21.2652C73.9026 24.8973 75.5928 26.0841 79.2617 25.634C80.0148 25.5419 80.7289 25.4293 80.5038 24.4635C80.2603 23.4138 79.5318 24.0542 78.9794 24.1525C78.7747 24.1873 78.5701 24.2752 78.3655 24.2978C76.573 24.4901 75.0219 22.8204 75.069 20.4672C75.1078 18.5621 76.6937 19.9188 77.4835 19.5402ZM75.0567 17.2464C74.8766 16.0534 76.2128 14.2281 77.1479 14.177C78.1301 14.132 79.2679 15.7997 79.1942 17.1829C79.1574 17.9278 79.1574 17.9278 76.8635 17.9339C76.3274 17.7231 75.2429 18.4925 75.0567 17.2464Z" fill="#7D7D7D"/>
        <path d="M71.5779 12.8771C71.0766 12.8996 70.4975 13.1697 70.1639 12.5354C69.458 11.1951 70.7778 8.85213 72.2368 8.91761C72.9141 8.94626 73.4441 8.91761 73.485 8.11958C73.528 7.30107 72.8895 7.23969 72.2879 7.18444C69.9368 6.97981 68.2466 8.69867 68.2179 11.412C68.2179 12.2551 68.3489 13.0613 67.0782 12.9201C66.5523 12.8628 66.2883 13.2066 66.3211 13.7079C66.3538 14.2092 66.6792 14.4711 67.1805 14.4241C68.22 14.3279 68.2323 14.9643 68.22 15.7357C68.1729 18.7028 68.1832 21.6699 68.132 24.641C68.1197 25.3511 68.2732 25.7603 69.0815 25.7255C69.7956 25.6969 70.2867 25.613 70.2294 24.6615C70.1414 23.182 70.2069 21.6944 70.2069 20.2109H70.1455C70.1455 19.4681 70.1455 18.7253 70.1455 17.9846C70.1455 17.2438 70.1742 16.4969 70.1251 15.7582C70.0555 14.7106 70.2499 14.0598 71.5308 14.4589C72.1447 14.6635 72.5846 14.3566 72.6317 13.6854C72.689 12.9262 72.1611 12.8526 71.5779 12.8771Z" fill="#7D7D7D"/>
        <path d="M55.7442 12.8942C55.0751 12.7142 54.4223 12.6077 53.7164 12.7899C50.9519 13.502 49.585 15.6894 49.5625 19.4668C49.5851 20.2061 49.6459 20.9437 49.7446 21.6767C50.3073 24.7461 52.6319 26.3361 55.4741 25.6669C56.088 25.5237 56.4236 25.27 56.3213 24.5947C56.223 23.9542 55.8568 23.9051 55.2981 23.9808C53.2519 24.2468 52.2472 23.5306 51.7438 21.5887C51.3747 20.2021 51.3537 18.7457 51.6824 17.3489C52.2165 15.0632 53.0575 14.3962 55.38 14.5885C56.0348 14.6417 56.2251 14.302 56.3561 13.8109C56.4993 13.281 56.2169 13.0211 55.7442 12.8942Z" fill="#7D7D7D"/>
        <path d="M76.6318 11.1405C76.8365 11.2633 77.2457 11.3902 77.3521 11.292C78.3753 10.2688 79.3595 9.21297 80.2783 8.24305C80.3601 7.8338 80.1719 7.70488 79.9693 7.68033C79.4004 7.61075 78.7415 7.41022 78.3323 7.93202C77.6877 8.75052 77.3951 9.82275 76.6237 10.5819C76.583 10.6165 76.5505 10.6596 76.5284 10.7083C76.5064 10.7569 76.4954 10.8098 76.4961 10.8632C76.4969 10.9165 76.5095 10.9691 76.533 11.017C76.5564 11.065 76.5902 11.1072 76.6318 11.1405Z" fill="white"/>
        <path d="M295.635 61.6421C295.339 61.7996 294.976 62.1533 295.341 62.5216C295.707 62.8899 295.969 62.3738 296.289 62.2793C297.258 62.0152 297.457 60.6463 298.615 60.6656V59.5365C296.895 59.1997 296.715 61.0606 295.635 61.6421Z" fill="#7D7D7D"/>
        <path d="M285.752 67.7432C286.722 65.3735 287.654 62.9869 288.498 60.5688C288.854 59.5535 289.101 58.6473 290.463 58.7976C290.572 58.8165 290.685 58.8122 290.792 58.7851C290.9 58.758 291.001 58.7086 291.089 58.6402C291.176 58.5717 291.249 58.4857 291.301 58.3876C291.354 58.2895 291.385 58.1816 291.393 58.0707C291.458 57.5667 291.119 57.431 290.707 57.3947C289.583 57.2953 289.939 56.7308 290.279 56.1226C290.521 55.7131 290.93 55.1922 290.136 54.9305C290.015 54.8867 289.885 54.8705 289.757 54.883C289.629 54.8955 289.505 54.9365 289.395 55.0029C289.285 55.0693 289.191 55.1594 289.12 55.2668C289.049 55.3742 289.003 55.496 288.985 55.6235C288.81 57.5304 287.502 57.666 286.007 57.9277C283.698 58.3348 282.372 61.0776 283.465 63.016C284.211 61.5888 284.473 59.8273 286.428 59.4179C287.272 59.2386 287.79 59.2797 287.369 60.2271C286.736 61.6501 286.222 63.1225 285.83 64.6297C285.682 65.1942 285.297 65.3735 284.861 64.9979C283.707 63.9997 282.905 64.7266 282.125 65.5019C280.64 66.9751 279.472 68.6518 278.944 70.7137C278.597 71.8646 277.732 73.3257 279.126 74.0332C280.279 74.6244 281.166 73.2167 282.014 72.4461C282.308 72.1243 282.56 71.766 282.763 71.38C282.971 71.0457 283.23 71.0214 283.545 71.1935C283.545 71.695 283.526 72.1942 283.511 72.6957C283.487 73.6286 283.293 74.6971 284.551 74.9781C285.551 75.2035 286.998 73.7012 287.068 72.4413C286.781 72.5815 286.505 72.7435 286.242 72.9259C285.811 73.2724 285.425 73.8127 284.788 73.5195C284.047 73.1755 284.563 72.5503 284.546 72.0245C284.495 70.4666 285.185 69.1315 285.752 67.7432ZM283.177 69.8172L282.845 70.1346C282.159 70.7913 281.478 71.4503 280.788 72.0997C280.274 72.5843 279.736 73.1488 279.346 71.9979C279.347 71.9931 279.347 71.9882 279.346 71.9834C280.444 70.0959 281.41 68.1284 283.046 66.5971C283.598 66.0786 284.17 65.6037 284.81 66.0907C285.45 66.5777 284.742 67.1156 284.517 67.5663C284.124 68.3344 283.627 69.0588 283.177 69.8172Z" fill="#7D7D7D"/>
        <path d="M175.753 63.3454C176.523 60.3943 178.13 59.0616 181.212 59.5147C182.164 59.6528 183.111 58.9356 184.153 59.3354C184.478 59.459 184.88 59.1052 184.88 58.6618C184.894 58.153 184.485 58.0755 184.102 58.0658C181.832 58.0149 179.53 58.2475 177.303 58.3468C175.285 58.4365 173.063 58.8072 170.941 59.1052C168.048 59.5099 166.693 61.3852 167.638 64.1765C168.309 63.0329 168.387 61.6179 169.705 61.0824C171.365 60.4088 173.097 60.2901 174.863 60.1956C175.748 60.1495 175.782 60.5614 175.484 61.2447C174.936 62.5071 174.398 63.7743 173.914 65.0609C173.056 67.336 172.048 69.5652 171.604 71.976C171.314 73.5631 171.944 74.4644 173.368 74.3602C175.564 74.1979 177.095 72.9452 178.563 70.9293C177.352 70.9632 177.126 71.7362 176.557 71.9542C175.544 72.3395 174.495 73.408 173.446 72.4752C172.542 71.6732 173.041 70.4689 173.41 69.4755C174.19 67.4233 175.2 65.4558 175.753 63.3454Z" fill="#7D7D7D"/>
        <path d="M228.008 64.1945C226.925 63.7099 225.803 64.0394 224.885 64.8584C224.471 65.2291 224.044 65.5853 223.625 65.956C224.468 66.9252 224.703 65.6289 225.251 65.486C226.07 65.2727 226.845 64.5434 227.674 65.2824C228.503 66.0214 228.58 66.9519 228.217 68.0228C227.587 69.8764 226.874 71.6451 225.343 72.9657C224.946 73.3073 224.558 73.6925 224.035 73.3872C223.468 73.0505 223.768 72.5004 223.897 72.0352C224.318 70.5136 224.924 69.0865 225.98 67.8774C226.409 67.3928 227.223 66.7847 226.567 66.1571C225.634 65.2703 225.447 66.6562 224.897 66.9761C224.698 67.1185 224.514 67.2809 224.347 67.4607C223.698 68.6528 223.051 69.8473 222.811 71.2042C222.193 71.2163 221.624 71.3229 221.319 71.9577C220.652 72.3502 220.146 73.2879 219.235 72.8978C218.324 72.5077 218.43 71.5264 218.413 70.7535C218.375 69.0186 217.975 67.2668 218.568 65.5441C218.687 65.1952 218.724 64.7688 218.302 64.5628C218.217 64.5206 218.124 64.4966 218.029 64.4922C217.933 64.4878 217.839 64.5032 217.75 64.5373C217.661 64.5715 217.58 64.6237 217.513 64.6906C217.445 64.7575 217.392 64.8378 217.357 64.9263C216.514 66.5908 215.067 67.8895 214.469 69.6995C214.173 69.6825 213.873 69.6753 213.742 69.3264L218.53 56.2254C218.772 55.5906 219.23 54.7716 218.333 54.4566C217.391 54.1344 217.364 55.1011 217.161 55.7384C215.777 60.0004 214.372 64.2575 212.974 68.5147C212.584 68.946 212.683 69.5105 212.569 70.0169C212.186 71.0539 211.813 72.0958 211.418 73.1304C211.244 73.5859 210.837 74.1117 211.513 74.4073C212.099 74.6617 212.395 74.1263 212.654 73.6804L214.549 70.4651L215.293 69.7043L215.559 69.4451C216.015 68.9871 216.092 67.8605 216.851 68.0834C217.711 68.3402 216.998 69.2561 217.064 69.8764C217.11 70.3052 217.086 70.7462 217.158 71.1702C217.367 72.3575 217.129 73.9857 218.522 74.371C219.991 74.7756 220.945 73.5108 221.76 72.3744C222.154 72.3395 222.546 72.4623 222.85 72.7161C223.39 74.8556 224.275 75.2287 225.951 73.947C228.231 72.2024 229.152 69.7019 229.494 66.9882C229.583 66.4244 229.486 65.8471 229.218 65.3432C228.95 64.8393 228.525 64.4361 228.008 64.1945Z" fill="#7D7D7D"/>
        <path d="M194.969 64.4859C194.242 64.6167 193.879 65.2588 193.387 65.6974C193.167 65.9009 192.946 66.2377 193.205 66.5139C193.569 66.9064 193.845 66.4194 194.16 66.3152C194.521 65.8204 195.011 65.4347 195.577 65.2007C195.864 65.0979 196.168 65.0575 196.471 65.0819C196.714 65.1304 196.956 65.1886 197.198 65.237C198.754 67.0494 197.303 68.6704 196.791 70.2962C196.459 71.3502 195.694 72.2346 194.831 73.0002C194.492 73.2982 194.179 73.6617 193.707 73.4533C193.101 73.1892 193.283 72.6319 193.377 72.157C193.73 70.5003 194.515 68.9664 195.653 67.7109C196.028 67.2723 196.733 66.7586 196.089 66.1335C195.384 65.4502 195.081 66.4824 194.569 66.6787C193.205 68.5056 192.028 70.3979 192.345 72.8354C192.587 74.6745 193.692 75.2148 195.207 74.1196C197.596 72.3945 198.739 69.9642 198.79 67.0567C198.834 64.2945 197.596 63.4949 194.969 64.4859Z" fill="#7D7D7D"/>
        <path d="M295.43 73.047C294.507 72.434 294.834 71.2904 294.929 70.4302C295.123 68.8647 295.726 67.378 296.678 66.1198C297.08 65.5673 297.766 64.8913 297.09 64.3292C296.208 63.6023 296.162 64.9979 295.588 65.1894C294.912 68.1284 292.743 70.0353 290.797 72.09C290.679 72.237 290.512 72.3355 290.326 72.3668C290.14 72.3981 289.949 72.3599 289.789 72.2596C289.339 71.9882 289.608 71.6223 289.724 71.2904C289.751 71.2492 289.78 71.2129 289.806 71.1717C291.299 69.0201 293.177 67.1956 294.849 65.1966C294.122 64.5279 293.424 64.8913 292.891 65.4123C291.309 66.9581 289.818 68.5864 289.157 70.7816C288.74 71.8234 288.067 73.1003 289.235 73.8321C290.473 74.605 291.192 73.19 291.997 72.4849C292.571 71.9809 292.799 71.0893 293.761 70.8421C294.114 72.2184 292.85 74.2876 295.214 74.5493C296.426 74.6874 297.344 73.7618 298.156 72.2959C296.913 72.6957 296.225 73.5728 295.43 73.047Z" fill="#7D7D7D"/>
        <path d="M190.339 72.3193C188.798 73.3685 188.306 73.2037 188.044 71.3865C187.783 69.5693 187.574 67.6697 188.022 65.8137C188.124 65.3945 188.35 64.876 187.901 64.6167C187.349 64.2969 186.983 64.7621 186.69 65.1885C185.808 66.4808 184.93 67.7674 184.056 69.0483C183.47 69.4457 183.256 69.184 183.235 68.5831C183.758 67.3838 184.325 66.1989 184.795 64.9777C185.907 62.0823 186.976 59.1626 188.059 56.2551C188.301 55.6348 188.88 54.8812 187.979 54.4718C186.935 53.9993 186.944 55.0823 186.75 55.6469C185.311 59.8217 183.913 64.0134 182.5 68.1979C182.354 68.4278 182.286 68.699 182.307 68.9708C182.118 69.7195 181.931 70.4682 181.742 71.2193C181.449 71.8977 181.185 72.5859 180.855 73.2473C180.652 73.6568 180.405 74.076 180.911 74.3643C181.417 74.6526 181.861 74.3328 182.122 73.8603C182.779 72.6149 183.407 71.3526 184.044 70.0975C184.771 69.7311 185.351 69.1265 185.687 68.3844C185.818 68.0816 186.159 67.723 186.593 67.9531C186.922 68.1276 186.806 68.5056 186.75 68.7939C186.467 70.2477 186.859 71.6651 187.056 73.0801C187.184 74.0154 187.749 74.7932 188.861 74.3885C189.973 73.9839 190.966 73.3806 191.216 72.0528C190.765 71.8638 190.581 72.1546 190.339 72.3193Z" fill="#7D7D7D"/>
        <path d="M237.587 70.543C237.633 68.9777 237.691 67.4149 238.578 66.0266C238.804 65.6728 239.136 65.1737 238.685 64.8587C238.162 64.4904 237.735 64.9653 237.454 65.3675C236.713 66.4385 236.02 67.5482 235.305 68.6385C234.924 68.7912 234.82 69.4308 234.224 69.2225C233.933 68.6313 234.353 68.1612 234.517 67.6475C234.828 66.6905 235.358 65.5323 234.353 64.8829C233.216 64.156 232.674 65.5129 231.93 66.0799C231.874 66.1235 231.93 66.3004 231.93 66.5354C233.626 65.9951 233.558 66.9812 233.294 68.1103C233.11 68.9002 232.901 69.6828 232.705 70.4679C232.182 71.3111 231.653 72.1518 231.137 72.9974C230.912 73.3706 230.614 73.814 231.077 74.1556C231.627 74.5578 232.09 74.1387 232.288 73.6928C232.935 72.1761 234.227 71.1415 235.063 69.7652C235.236 69.7087 235.393 69.6105 235.52 69.4791C235.647 69.3477 235.739 69.1872 235.789 69.0117C236.705 68.7354 236.722 69.2055 236.548 69.8936C236.287 70.9929 236.252 72.1337 236.444 73.247C236.628 74.4367 237.391 74.8438 238.476 74.3373C239.228 73.986 240.02 73.579 240.173 72.5662C237.648 73.3851 237.507 73.2761 237.587 70.543Z" fill="#7D7D7D"/>
        <path d="M269.971 64.0343C268.65 63.9567 267.468 64.0876 267.305 65.7812L269.874 64.9502C271.184 65.5317 271.262 66.6632 270.979 67.7947C270.518 69.6241 269.745 71.3201 268.381 72.7012C267.87 73.2173 267.356 73.6123 266.586 73.4742C266.387 71.119 267.669 69.3551 268.972 67.6203C269.338 67.1357 269.992 66.6293 269.35 66.0284C268.623 65.3548 268.306 66.2004 267.897 66.6099C267.713 66.7732 267.521 66.9261 267.32 67.0678C266.835 68.0031 266.263 68.9069 265.866 69.8809C265.28 71.3492 264.921 72.8563 266.196 74.2083C266.935 74.9982 267.666 74.6469 268.34 74.1453C270.974 72.173 272.195 69.5417 271.989 66.2489C271.923 64.9817 271.233 64.2427 269.971 64.0343Z" fill="#7D7D7D"/>
        <path d="M261.363 70.4781C261.363 70.3545 261.346 70.2358 261.339 70.1074C261.869 68.7941 262.209 67.4082 263.112 66.2427C263.546 65.6782 264.566 64.789 263.662 64.222C262.759 63.655 262.599 65.1257 262 65.5691C261.78 67.2289 260.353 68.2344 259.788 69.7197L258.79 70.6889L258.637 70.8367C258.581 70.8633 258.526 70.89 258.472 70.9215C257.777 71.3576 257.314 72.8405 256.565 72.2953C255.47 71.4981 256.873 70.6331 257.292 70.0032C258.186 68.6705 259.4 67.556 260.474 66.3421C260.852 65.9132 261.603 65.6539 261.222 64.8398C260.789 64.8083 260.338 64.7211 259.958 65.0191C257.692 66.7952 256.03 69.0146 255.301 71.8034C255.117 72.5134 254.928 73.5722 255.86 73.9841C256.725 74.3669 257.365 73.6376 257.949 73.0779C258.39 72.6515 258.918 72.2783 259.039 71.6072C259.371 71.4642 259.42 70.8609 259.866 70.9821C260.457 71.142 260.244 71.6847 260.222 72.0845C260.164 73.2015 260.222 74.2652 261.567 74.5826C262.55 74.8103 263.776 73.8169 264.232 72.5182C261.547 73.577 261.433 73.4947 261.363 70.4781Z" fill="#7D7D7D"/>
        <path d="M203.725 55.4251C203.667 55.0181 203.516 54.6764 203.061 54.6983C202.951 54.693 202.84 54.7101 202.737 54.7484C202.633 54.7867 202.538 54.8455 202.458 54.9212C202.377 54.9969 202.313 55.0881 202.268 55.1892C202.224 55.2904 202.2 55.3994 202.198 55.51C202.135 57.5041 200.904 58.9481 199.775 60.6806C201.663 60.2178 203.95 57.017 203.725 55.4251Z" fill="#7D7D7D"/>
        <path d="M198.225 59.5983C197.702 60.8873 195.967 61.2944 195.72 62.833C196.863 63.3782 198.453 59.4093 199.112 63.5914C200.045 62.0625 199.112 60.8776 198.87 59.6516C198.816 59.436 198.31 59.3972 198.225 59.5983Z" fill="#7D7D7D"/>
        <path d="M253.867 65.5175C254.092 65.091 254.146 64.4538 253.465 64.3229C252.898 64.2163 252.563 64.6646 252.425 65.1831C252.222 65.9391 252.059 66.7047 251.878 67.4655C251.299 67.8823 251.182 68.6092 250.768 69.1277C250.354 69.6462 250.344 70.659 249.273 70.4046C249.234 69.0986 249.964 67.9186 249.825 66.5714C249.564 63.9886 248.166 63.1963 245.774 64.3762C245.147 64.5749 244.42 65.0668 244.766 65.612C245.251 66.3558 245.784 65.578 246.22 65.2049C247.986 64.9505 248.57 65.8252 248.476 67.4704C248.362 69.4378 248.718 71.4707 247.529 73.2661C247.269 73.6586 247.153 74.182 247.592 74.4315C248.217 74.7877 248.444 74.1505 248.687 73.7483C249.171 72.9535 249.612 72.1394 250.073 71.3253C251.187 70.5693 251.681 69.3603 252.304 68.2481C253.126 67.9913 254.1 68.6358 255.091 67.7635C253.663 67.4171 253.223 66.7338 253.867 65.5175Z" fill="#7D7D7D"/>
        <path d="M261.831 62.6704C261.995 62.8494 262.223 62.9572 262.465 62.9708C262.807 62.9829 262.768 62.6752 262.761 62.2076C262.361 61.4807 261.898 60.5357 261.348 59.6562C261.246 59.4955 261.085 59.3806 260.9 59.3355C260.715 59.2904 260.52 59.3184 260.355 59.4139C259.914 59.724 260.059 60.1408 260.355 60.5479C260.849 61.2529 261.31 61.9847 261.831 62.6704Z" fill="#7D7D7D"/>
        <path d="M232.326 58.0052C232.646 58.0222 232.649 57.6951 232.736 57.3316C232.077 56.7429 232.074 55.7446 231.58 54.9789C231.527 54.8805 231.453 54.7947 231.364 54.7272C231.274 54.6597 231.172 54.612 231.062 54.5875C230.953 54.5629 230.84 54.562 230.73 54.5848C230.621 54.6076 230.517 54.6536 230.427 54.7197C229.942 55.0613 230.185 55.4466 230.458 55.8439C230.897 56.4424 231.27 57.0869 231.713 57.6806C231.868 57.8638 232.088 57.9801 232.326 58.0052Z" fill="#7D7D7D"/>
        <path d="M204.089 70.0257C203.066 70.7138 203.151 70.0402 203.248 69.3448C203.803 68.1649 204.169 66.8976 204.944 65.8243C205.225 65.439 205.249 64.9859 204.832 64.6564C204.561 64.4432 204.106 64.4674 204.004 64.7388C203.439 66.2992 201.465 67.2853 202.119 69.3424C202.005 69.8561 201.876 70.3698 201.775 70.881C201.36 71.7072 200.939 72.531 200.537 73.3621C200.362 73.7183 200.311 74.1254 200.704 74.3458C200.794 74.4104 200.898 74.4521 201.008 74.4673C201.117 74.4824 201.229 74.4707 201.333 74.433C201.437 74.3953 201.53 74.3327 201.605 74.2509C201.679 74.169 201.733 74.0702 201.76 73.963C202.073 73.0568 202.758 72.4099 203.27 71.6442C203.701 71.4189 204.132 71.1936 204.564 70.9634C204.995 70.7332 205.55 70.4594 205.177 69.8852C204.859 69.3739 204.433 69.7955 204.089 70.0257Z" fill="#7D7D7D"/>
        <path d="M206.386 60.3061C205.642 60.3449 205.305 60.8706 205.213 61.5055C205.133 62.0409 205.547 62.2323 206.122 62.2614C206.679 62.0724 207.149 61.7332 207.091 60.9821C207.054 60.575 206.834 60.2819 206.386 60.3061Z" fill="#7D7D7D"/>
        <path d="M229.694 60.9966C229.464 60.4927 230.026 59.0389 228.752 59.7852C227.64 60.4297 226.886 61.6969 225.786 62.8938C227.048 62.9326 227.552 62.2953 228.095 61.7211C228.725 61.6557 229.171 61.8229 229.256 62.5498C229.307 62.9738 229.411 63.519 230.017 63.2621C230.501 63.061 230.412 62.5352 230.273 62.1282C230.109 61.7369 229.916 61.3586 229.694 60.9966Z" fill="#7D7D7D"/>
    </g>
    <defs>
        <clipPath id="clip0_3058_50177">
            <rect width="300" height="106" fill="white" transform="translate(0 0.5)"/>
        </clipPath>
    </defs>
</svg>
