<svg width="99" height="99" viewBox="0 0 99 99" fill="none" xmlns="http://www.w3.org/2000/svg">
    <g clip-path="url(#clip0_2202_38493)">
        <path d="M58.1473 80.9655H10.96C8.06502 80.9655 6.61754 80.9655 5.51182 80.3982C4.53919 79.8993 3.74843 79.1031 3.25285 78.1238C2.68945 77.0105 2.68945 75.5531 2.68945 72.6383V64.4646C8.71242 62.3212 13.0276 56.5378 13.0276 49.7396C13.0276 42.9414 8.71242 37.158 2.68945 35.0146V26.8389C2.68945 23.9241 2.68945 22.4667 3.25285 21.3534C3.74843 20.3741 4.53919 19.5779 5.51182 19.079C6.61754 18.5117 8.06502 18.5117 10.96 18.5117H87.4623C90.3572 18.5117 91.8047 18.5117 92.9104 19.079C93.8831 19.5779 94.6738 20.3741 95.1694 21.3534C95.7328 22.4667 95.7328 23.9241 95.7328 26.8389V35.0136" stroke="white" stroke-width="5" stroke-linecap="round" stroke-linejoin="round"/>
        <path d="M95.7325 50.7652V50.3831C95.7325 45.5298 91.5854 41.5954 86.4697 41.5954H72.2592C66.9211 41.5954 62.5938 45.7008 62.5938 50.7652C62.5938 55.8295 66.9211 59.9349 72.2592 59.9349H86.067C91.4051 59.9349 95.7325 64.0404 95.7325 69.1047C95.7325 74.1691 91.4051 78.2745 86.067 78.2745H72.0579C66.831 78.2745 62.5938 74.2546 62.5938 69.2958V69.1047M79.1631 36.3555V83.5144" stroke="white" stroke-width="5" stroke-linecap="round" stroke-linejoin="round"/>
        <line x1="31.5" y1="21.5" x2="31.5" y2="78.5" stroke="white" stroke-width="5" stroke-linecap="round" stroke-dasharray="10 10"/>
    </g>
    <defs>
        <clipPath id="clip0_2202_38493">
            <rect width="98.1416" height="98.1416" fill="white" transform="translate(0.140625 0.667969)"/>
        </clipPath>
    </defs>
</svg>
