<svg width="99" height="99" viewBox="0 0 99 99" fill="none" xmlns="http://www.w3.org/2000/svg">
    <g clip-path="url(#clip0_2202_38482)">
        <path d="M47.5761 84.7892C28.3567 84.7892 13.0938 70.0644 13.0938 49.7387C13.0938 29.4129 29.5711 12.9355 49.8969 12.9355C70.2227 12.9355 86.7 29.4129 86.7 49.7387C86.7 52.7374 86.291 54.6457 85.8821 56.2814M49.8969 29.2925V49.7387L39.6313 42.3302" stroke="white" stroke-width="5" stroke-linecap="round" stroke-linejoin="round"/>
        <path d="M49.8965 96.3562L72.3873 96.356V61.8109C72.3873 58.6718 72.3873 57.1022 71.812 56.0143C71.3077 55.0604 70.514 54.3438 69.5773 53.9965C68.509 53.6005 67.1477 53.941 64.4252 54.6219L59.1092 55.9516C57.281 56.4089 56.367 56.6375 55.6847 57.1908C55.0828 57.6788 54.6103 58.3419 54.3176 59.109C53.9857 59.9787 53.9857 61.0327 53.9857 63.1406V96.3562M74.4319 59.5345H76.0676C78.3578 59.5345 79.5029 59.5345 80.3776 60.0361C81.147 60.4774 81.7726 61.1815 82.1647 62.0476C82.6104 63.0322 82.6104 64.321 82.6104 66.8988V96.3562H86.6996M66.2534 75.644H66.2739" stroke="white" stroke-width="5" stroke-linecap="round" stroke-linejoin="round"/>
    </g>
    <defs>
        <clipPath id="clip0_2202_38482">
            <rect width="98.1416" height="98.1416" fill="white" transform="translate(0.416016 0.667969)"/>
        </clipPath>
    </defs>
</svg>
