<svg width="77" height="77" viewBox="0 0 77 77" fill="none" xmlns="http://www.w3.org/2000/svg">
    <g clip-path="url(#clip0_3020_64618)">
        <path d="M36.8958 67.375C21.8167 67.375 9.625 54.4472 9.625 38.5C9.625 22.5528 22.5528 9.625 38.5 9.625C54.4472 9.625 67.375 22.5528 67.375 38.5C67.375 40.8528 67.0542 44.5958 65.7708 46.8417M38.5 22.4583V38.5L48.4458 33.6875" stroke="#259E58" stroke-width="4" stroke-linecap="round" stroke-linejoin="round"/>
        <path d="M45.4144 63.2041C45.4144 60.7595 43.867 58.6798 41.707 57.909V54.9691C41.707 53.9209 41.707 53.3968 41.9091 52.9965C42.0868 52.6443 42.3704 52.358 42.7192 52.1786C43.1157 51.9746 43.6348 51.9746 44.673 51.9746H72.1078C73.1459 51.9746 73.665 51.9746 74.0616 52.1786C74.4104 52.358 74.6939 52.6443 74.8717 52.9965C75.0737 53.3968 75.0737 53.9209 75.0737 54.9691V57.9087C72.9138 58.6794 71.3663 60.7595 71.3663 63.2041C71.3663 65.6488 72.9138 67.7281 75.0737 68.4989V71.4385C75.0737 72.4867 75.0737 73.0107 74.8717 73.4111C74.6939 73.7632 74.4104 74.0495 74.0616 74.229C73.665 74.4329 73.1459 74.4329 72.1078 74.4329H44.673C43.6348 74.4329 43.1157 74.4329 42.7192 74.229C42.3704 74.0495 42.0868 73.7632 41.9091 73.4111C41.707 73.0107 41.707 72.4867 41.707 71.4385V68.4992C43.867 67.7285 45.4144 65.6488 45.4144 63.2041Z" stroke="#259E58" stroke-width="4" stroke-linecap="round" stroke-linejoin="round"/>
    </g>
    <defs>
        <clipPath id="clip0_3020_64618">
            <rect width="77" height="77" fill="white"/>
        </clipPath>
    </defs>
</svg>
