<svg width="77" height="77" viewBox="0 0 77 77" fill="none" xmlns="http://www.w3.org/2000/svg">
    <g clip-path="url(#clip0_3020_64626)">
        <path d="M36.9995 66C21.9203 66 9.94531 54.4472 9.94531 38.5C9.94531 22.5528 22.8731 9.625 38.8203 9.625C54.7675 9.625 67.6953 22.5528 67.6953 38.5C67.6953 40.8528 67.3745 42.35 67.0536 43.6333M38.8203 22.4583V38.5L48.7661 33.6875" stroke="#259E58" stroke-width="4" stroke-linecap="round" stroke-linejoin="round"/>
        <path d="M38.8203 75.0756L56.4661 75.0755V47.9721C56.4661 45.5092 56.4661 44.2778 56.0148 43.4242C55.6191 42.6758 54.9964 42.1136 54.2615 41.8411C53.4233 41.5304 52.3553 41.7975 50.2192 42.3318L46.0484 43.375C44.6141 43.7338 43.8969 43.9132 43.3616 44.3473C42.8894 44.7302 42.5186 45.2504 42.289 45.8523C42.0286 46.5346 42.0286 47.3615 42.0286 49.0154V75.0756M58.0703 46.1861H59.3536C61.1505 46.1861 62.0489 46.1861 62.7352 46.5797C63.3389 46.9259 63.8297 47.4783 64.1373 48.1578C64.487 48.9303 64.487 49.9415 64.487 51.964V75.0756H67.6953M51.6536 58.8253H51.6697" stroke="#259E58" stroke-width="4" stroke-linecap="round" stroke-linejoin="round"/>
    </g>
    <defs>
        <clipPath id="clip0_3020_64626">
            <rect width="77" height="77" fill="white"/>
        </clipPath>
    </defs>
</svg>
