<svg width="24" height="24" viewBox="0 0 24 24" fill="none" xmlns="http://www.w3.org/2000/svg">
    <g clip-path="url(#clip0_5941_270)">
        <path fill-rule="evenodd" clip-rule="evenodd" d="M0.562933 2.69513C0 3.77882 0 5.20255 0 8.05V15.95C0 18.7975 0 20.2212 0.562933 21.3049C1.03731 22.2181 1.78191 22.9627 2.69513 23.4371C3.77882 24 5.20255 24 8.05 24H15.95C18.7975 24 20.2212 24 21.3049 23.4371C22.2181 22.9627 22.9627 22.2181 23.4371 21.3049C24 20.2212 24 18.7975 24 15.95V8.05C24 5.20255 24 3.77882 23.4371 2.69513C22.9627 1.78191 22.2181 1.03731 21.3049 0.562933C20.2212 0 18.7975 0 15.95 0H8.05C5.20255 0 3.77882 0 2.69513 0.562933C1.78191 1.03731 1.03731 1.78191 0.562933 2.69513ZM18.1875 3.99469C18.1875 3.00063 18.9937 2.19531 19.9875 2.19531C20.9813 2.19531 21.7875 3.00094 21.7875 3.99469C21.7875 4.98844 20.9813 5.79469 19.9875 5.79469C18.9937 5.79469 18.1875 4.98844 18.1875 3.99469ZM4.5 12.0005C4.5 7.74643 7.74589 4.50049 12 4.50049C16.2541 4.50049 19.5 7.74643 19.5 12.0005C19.5 16.2546 16.2541 19.5005 12 19.5005C7.74589 19.5005 4.5 16.2546 4.5 12.0005ZM16.5 12.0005C16.5 9.23893 14.7613 7.50049 12 7.50049C9.23841 7.50049 7.5 9.23893 7.5 12.0005C7.5 14.7617 9.23841 16.5005 12 16.5005C14.7613 16.5005 16.5 14.7617 16.5 12.0005Z" fill="white"/>
    </g>
    <defs>
        <clipPath id="clip0_5941_270">
            <rect width="24" height="24" fill="white"/>
        </clipPath>
    </defs>
</svg>
