<svg width="88" height="88" viewBox="0 0 88 88" fill="none" xmlns="http://www.w3.org/2000/svg">
    <g filter="url(#filter0_d_2188_38570)">
        <rect x="9" y="9" width="64" height="64" rx="32" fill="white"/>
        <path fill-rule="evenodd" clip-rule="evenodd" d="M41.0023 27.666C33.4918 27.666 27.667 33.1679 27.667 40.6008C27.667 44.4886 29.2609 47.8468 31.854 50.1661C32.0696 50.3613 32.2014 50.6311 32.2116 50.9252L32.2851 53.2987C32.2904 53.4732 32.3385 53.6438 32.4252 53.7952C32.5119 53.9468 32.6346 54.0747 32.7824 54.1676C32.9301 54.2605 33.0985 54.3157 33.2726 54.3284C33.4468 54.3409 33.6213 54.3105 33.7809 54.2397L36.4282 53.073C36.654 52.9748 36.9043 52.9555 37.1393 53.0188C38.3551 53.3528 39.6497 53.5338 40.9983 53.5338C48.5089 53.5338 54.3337 48.0328 54.3337 40.5999C54.3337 33.1679 48.5099 27.666 41.0023 27.666ZM48.0042 37.7707L44.6653 43.0663C44.5395 43.2656 44.3739 43.4368 44.1789 43.5689C43.9838 43.7011 43.7635 43.7915 43.5318 43.8343C43.3001 43.8771 43.0621 43.8713 42.8326 43.8176C42.6031 43.7639 42.3874 43.6632 42.1989 43.522L39.5423 41.5316C39.4241 41.4432 39.2803 41.3955 39.1326 41.3955C38.985 41.3955 38.8413 41.4432 38.723 41.5316L35.1388 44.2524C34.6637 44.6152 34.0353 44.042 34.3541 43.5372L37.693 38.2417C37.8187 38.0424 37.9843 37.8713 38.1794 37.7391C38.3745 37.6069 38.5947 37.5166 38.8265 37.4738C39.0582 37.431 39.2962 37.4366 39.5257 37.4904C39.7551 37.5441 39.9709 37.6448 40.1594 37.7861L42.8159 39.7764C42.9342 39.8647 43.0779 39.9125 43.2257 39.9125C43.3733 39.9125 43.517 39.8647 43.6353 39.7764L47.2195 37.0555C47.6997 36.6877 48.3281 37.2609 48.0042 37.7707Z" fill="#259E58"/>
    </g>
    <defs>
        <filter id="filter0_d_2188_38570" x="0" y="0" width="88" height="88" filterUnits="userSpaceOnUse" color-interpolation-filters="sRGB">
            <feFlood flood-opacity="0" result="BackgroundImageFix"/>
            <feColorMatrix in="SourceAlpha" type="matrix" values="0 0 0 0 0 0 0 0 0 0 0 0 0 0 0 0 0 0 127 0" result="hardAlpha"/>
            <feOffset dx="3" dy="3"/>
            <feGaussianBlur stdDeviation="6"/>
            <feComposite in2="hardAlpha" operator="out"/>
            <feColorMatrix type="matrix" values="0 0 0 0 0 0 0 0 0 0 0 0 0 0 0 0 0 0 0.23 0"/>
            <feBlend mode="normal" in2="BackgroundImageFix" result="effect1_dropShadow_2188_38570"/>
            <feBlend mode="normal" in="SourceGraphic" in2="effect1_dropShadow_2188_38570" result="shape"/>
        </filter>
    </defs>
</svg>
