<svg width="88" height="88" viewBox="0 0 88 88" fill="none" xmlns="http://www.w3.org/2000/svg">
    <g filter="url(#filter0_d_2188_38569)">
        <rect x="9" y="9" width="64" height="64" rx="32" fill="white"/>
        <path d="M53 32.3333C53 43.7472 43.7472 53 32.3333 53C31.8184 53 31.3078 52.9812 30.8023 52.9441C30.2222 52.9017 29.9321 52.8804 29.668 52.7284C29.4494 52.6025 29.2419 52.3793 29.1323 52.152C29 51.8776 29 51.5575 29 50.9173V47.1609C29 46.6226 29 46.3534 29.0886 46.1226C29.1669 45.9188 29.294 45.7373 29.4588 45.5941C29.6454 45.432 29.8983 45.34 30.4043 45.156L30.4043 45.156L34.6801 43.6012C35.2687 43.3871 35.563 43.2801 35.8423 43.2983C36.0885 43.3143 36.3254 43.3983 36.5267 43.541C36.755 43.7029 36.9162 43.9714 37.2384 44.5085L38.3333 46.3333C41.8665 44.7332 44.7308 41.8652 46.3333 38.3333L44.5085 37.2384C43.9714 36.9162 43.7029 36.755 43.541 36.5267C43.3983 36.3254 43.3143 36.0885 43.2983 35.8423C43.2801 35.563 43.3871 35.2687 43.6012 34.6801L43.6012 34.6801L45.156 30.4043C45.34 29.8983 45.432 29.6454 45.5941 29.4588C45.7373 29.294 45.9188 29.1669 46.1226 29.0886C46.3534 29 46.6226 29 47.1609 29H50.9173C51.5575 29 51.8776 29 52.152 29.1323C52.3793 29.2419 52.6025 29.4494 52.7284 29.668C52.8804 29.9321 52.9017 30.2222 52.9441 30.8023C52.9812 31.3078 53 31.8184 53 32.3333Z" fill="#259E58"/>
    </g>
    <defs>
        <filter id="filter0_d_2188_38569" x="0" y="0" width="88" height="88" filterUnits="userSpaceOnUse" color-interpolation-filters="sRGB">
            <feFlood flood-opacity="0" result="BackgroundImageFix"/>
            <feColorMatrix in="SourceAlpha" type="matrix" values="0 0 0 0 0 0 0 0 0 0 0 0 0 0 0 0 0 0 127 0" result="hardAlpha"/>
            <feOffset dx="3" dy="3"/>
            <feGaussianBlur stdDeviation="6"/>
            <feComposite in2="hardAlpha" operator="out"/>
            <feColorMatrix type="matrix" values="0 0 0 0 0 0 0 0 0 0 0 0 0 0 0 0 0 0 0.23 0"/>
            <feBlend mode="normal" in2="BackgroundImageFix" result="effect1_dropShadow_2188_38569"/>
            <feBlend mode="normal" in="SourceGraphic" in2="effect1_dropShadow_2188_38569" result="shape"/>
        </filter>
    </defs>
</svg>
