<svg width="99" height="99" viewBox="0 0 99 99" fill="none" xmlns="http://www.w3.org/2000/svg">
    <g clip-path="url(#clip0_2202_38503)">
        <path d="M53.3244 79.6901H11.2354C8.34041 79.6901 6.89293 79.6901 5.78721 79.1228C4.81458 78.6239 4.02382 77.8277 3.52824 76.8484C2.96484 75.7351 2.96484 74.2777 2.96484 71.3629V63.1892C8.98781 61.0458 13.303 55.2624 13.303 48.4642C13.303 41.666 8.98781 35.8826 2.96484 33.7392V25.5635C2.96484 22.6487 2.96484 21.1913 3.52824 20.078C4.02382 19.0987 4.81458 18.3026 5.78721 17.8036C6.89293 17.2363 8.34041 17.2363 11.2354 17.2363H87.7377C90.6326 17.2363 92.0801 17.2363 93.1858 17.8036C94.1585 18.3026 94.9492 19.0987 95.4448 20.078C96.0082 21.1913 96.0082 22.6487 96.0082 25.5635V45.2093" stroke="white" stroke-width="5" stroke-linecap="round" stroke-linejoin="round"/>
        <line x1="31.5" y1="21.5" x2="31.5" y2="78.5" stroke="white" stroke-width="5" stroke-linecap="round" stroke-dasharray="10 10"/>
        <path d="M60.3203 60.2729C59.2157 60.2729 58.3203 61.1683 58.3203 62.2729C58.3203 63.3775 59.2157 64.2729 60.3203 64.2729V60.2729ZM96.0082 64.2729C97.1127 64.2729 98.0082 63.3775 98.0082 62.2729C98.0082 61.1683 97.1127 60.2729 96.0082 60.2729V64.2729ZM62.4854 85.6326L63.3934 83.8506L62.4854 85.6326ZM60.7525 83.8997L62.5345 82.9917L60.7525 83.8997ZM95.576 83.8997L93.794 82.9917L95.576 83.8997ZM93.8431 85.6326L92.9351 83.8506L93.8431 85.6326ZM93.8431 54.7745L92.9351 56.5565L93.8431 54.7745ZM95.576 56.5074L93.794 57.4154L95.576 56.5074ZM62.4854 54.7745L63.3934 56.5565L62.4854 54.7745ZM60.7525 56.5074L62.5345 57.4154L60.7525 56.5074ZM70.2509 50.377C70.2509 49.2724 69.3555 48.377 68.2509 48.377C67.1464 48.377 66.2509 49.2724 66.2509 50.377H70.2509ZM66.2509 54.3423C66.2509 55.4468 67.1464 56.3423 68.2509 56.3423C69.3555 56.3423 70.2509 55.4468 70.2509 54.3423H66.2509ZM90.0775 50.377C90.0775 49.2724 89.1821 48.377 88.0775 48.377C86.973 48.377 86.0775 49.2724 86.0775 50.377H90.0775ZM86.0775 54.3423C86.0775 55.4468 86.973 56.3423 88.0775 56.3423C89.1821 56.3423 90.0775 55.4468 90.0775 54.3423H86.0775ZM66.2683 66.2209C65.1637 66.2209 64.2683 67.1163 64.2683 68.2209C64.2683 69.3255 65.1637 70.2209 66.2683 70.2209V66.2209ZM70.2336 70.2209C71.3382 70.2209 72.2336 69.3255 72.2336 68.2209C72.2336 67.1163 71.3382 66.2209 70.2336 66.2209V70.2209ZM76.1816 66.2209C75.077 66.2209 74.1816 67.1163 74.1816 68.2209C74.1816 69.3255 75.077 70.2209 76.1816 70.2209V66.2209ZM80.1469 70.2209C81.2515 70.2209 82.1469 69.3255 82.1469 68.2209C82.1469 67.1163 81.2515 66.2209 80.1469 66.2209V70.2209ZM86.0949 66.2209C84.9903 66.2209 84.0949 67.1163 84.0949 68.2209C84.0949 69.3255 84.9903 70.2209 86.0949 70.2209V66.2209ZM90.0602 70.2209C91.1648 70.2209 92.0602 69.3255 92.0602 68.2209C92.0602 67.1163 91.1648 66.2209 90.0602 66.2209V70.2209ZM66.2683 72.1689C65.1637 72.1689 64.2683 73.0643 64.2683 74.1689C64.2683 75.2734 65.1637 76.1689 66.2683 76.1689V72.1689ZM70.2336 76.1689C71.3382 76.1689 72.2336 75.2734 72.2336 74.1689C72.2336 73.0643 71.3382 72.1689 70.2336 72.1689V76.1689ZM76.1816 72.1689C75.077 72.1689 74.1816 73.0643 74.1816 74.1689C74.1816 75.2734 75.077 76.1689 76.1816 76.1689V72.1689ZM80.1469 76.1689C81.2515 76.1689 82.1469 75.2734 82.1469 74.1689C82.1469 73.0643 81.2515 72.1689 80.1469 72.1689V76.1689ZM86.0949 72.1689C84.9903 72.1689 84.0949 73.0643 84.0949 74.1689C84.0949 75.2734 84.9903 76.1689 86.0949 76.1689V72.1689ZM90.0602 76.1689C91.1648 76.1689 92.0602 75.2734 92.0602 74.1689C92.0602 73.0643 91.1648 72.1689 90.0602 72.1689V76.1689ZM66.2683 78.1168C65.1637 78.1168 64.2683 79.0123 64.2683 80.1168C64.2683 81.2214 65.1637 82.1168 66.2683 82.1168V78.1168ZM70.2336 82.1168C71.3382 82.1168 72.2336 81.2214 72.2336 80.1168C72.2336 79.0123 71.3382 78.1168 70.2336 78.1168V82.1168ZM76.1816 78.1168C75.077 78.1168 74.1816 79.0123 74.1816 80.1168C74.1816 81.2214 75.077 82.1168 76.1816 82.1168V78.1168ZM80.1469 82.1168C81.2515 82.1168 82.1469 81.2214 82.1469 80.1168C82.1469 79.0123 81.2515 78.1168 80.1469 78.1168V82.1168ZM86.0949 78.1168C84.9903 78.1168 84.0949 79.0123 84.0949 80.1168C84.0949 81.2214 84.9903 82.1168 86.0949 82.1168V78.1168ZM90.0602 82.1168C91.1648 82.1168 92.0602 81.2214 92.0602 80.1168C92.0602 79.0123 91.1648 78.1168 90.0602 78.1168V82.1168ZM60.3203 64.2729H96.0082V60.2729H60.3203V64.2729ZM66.6648 56.3423H89.6637V52.3423H66.6648V56.3423ZM94.0082 60.6868V79.7203H98.0082V60.6868H94.0082ZM89.6637 84.0648H66.6648V88.0648H89.6637V84.0648ZM62.3203 79.7203V60.6868H58.3203V79.7203H62.3203ZM66.6648 84.0648C65.5214 84.0648 64.7842 84.0633 64.2233 84.0174C63.6857 83.9735 63.4886 83.8991 63.3934 83.8506L61.5774 87.4146C62.3305 87.7983 63.1126 87.94 63.8975 88.0041C64.6591 88.0664 65.5874 88.0648 66.6648 88.0648V84.0648ZM58.3203 79.7203C58.3203 80.7977 58.3188 81.726 58.381 82.4876C58.4451 83.2725 58.5868 84.0546 58.9705 84.8077L62.5345 82.9917C62.486 82.8966 62.4116 82.6994 62.3677 82.1619C62.3219 81.601 62.3203 80.8637 62.3203 79.7203H58.3203ZM63.3934 83.8506C63.0236 83.6622 62.7229 83.3615 62.5345 82.9917L58.9705 84.8077C59.5424 85.9301 60.455 86.8427 61.5774 87.4146L63.3934 83.8506ZM94.0082 79.7203C94.0082 80.8637 94.0066 81.601 93.9608 82.1619C93.9169 82.6994 93.8425 82.8966 93.794 82.9917L97.358 84.8077C97.7417 84.0546 97.8834 83.2725 97.9475 82.4876C98.0097 81.726 98.0082 80.7977 98.0082 79.7203H94.0082ZM89.6637 88.0648C90.7411 88.0648 91.6694 88.0664 92.4309 88.0041C93.2159 87.94 93.998 87.7983 94.7511 87.4146L92.9351 83.8506C92.8399 83.8991 92.6428 83.9735 92.1052 84.0174C91.5443 84.0633 90.8071 84.0648 89.6637 84.0648V88.0648ZM93.794 82.9917C93.6055 83.3615 93.3049 83.6622 92.9351 83.8506L94.7511 87.4146C95.8735 86.8427 96.7861 85.9301 97.358 84.8077L93.794 82.9917ZM89.6637 56.3423C90.8071 56.3423 91.5443 56.3438 92.1052 56.3897C92.6428 56.4336 92.8399 56.508 92.9351 56.5565L94.7511 52.9925C93.998 52.6088 93.2159 52.4671 92.4309 52.4029C91.6694 52.3407 90.7411 52.3423 89.6637 52.3423V56.3423ZM98.0082 60.6868C98.0082 59.6094 98.0097 58.6811 97.9475 57.9195C97.8834 57.1346 97.7417 56.3524 97.358 55.5994L93.794 57.4154C93.8425 57.5105 93.9169 57.7077 93.9608 58.2452C94.0066 58.8061 94.0082 59.5434 94.0082 60.6868H98.0082ZM92.9351 56.5565C93.3049 56.7449 93.6055 57.0456 93.794 57.4154L97.358 55.5994C96.7861 54.4769 95.8735 53.5644 94.7511 52.9925L92.9351 56.5565ZM66.6648 52.3423C65.5874 52.3423 64.6591 52.3407 63.8975 52.4029C63.1126 52.4671 62.3305 52.6088 61.5774 52.9925L63.3934 56.5565C63.4886 56.508 63.6857 56.4336 64.2233 56.3897C64.7842 56.3438 65.5214 56.3423 66.6648 56.3423V52.3423ZM62.3203 60.6868C62.3203 59.5434 62.3219 58.8061 62.3677 58.2452C62.4116 57.7077 62.486 57.5105 62.5345 57.4154L58.9705 55.5994C58.5868 56.3524 58.4451 57.1346 58.381 57.9195C58.3188 58.6811 58.3203 59.6094 58.3203 60.6868H62.3203ZM61.5774 52.9925C60.455 53.5644 59.5424 54.4769 58.9705 55.5994L62.5345 57.4154C62.7229 57.0456 63.0236 56.7449 63.3934 56.5565L61.5774 52.9925ZM66.2509 50.377V54.3423H70.2509V50.377H66.2509ZM86.0775 50.377V54.3423H90.0775V50.377H86.0775ZM66.2683 70.2209H70.2336V66.2209H66.2683V70.2209ZM76.1816 70.2209H80.1469V66.2209H76.1816V70.2209ZM86.0949 70.2209H90.0602V66.2209H86.0949V70.2209ZM66.2683 76.1689H70.2336V72.1689H66.2683V76.1689ZM76.1816 76.1689H80.1469V72.1689H76.1816V76.1689ZM86.0949 76.1689H90.0602V72.1689H86.0949V76.1689ZM66.2683 82.1168H70.2336V78.1168H66.2683V82.1168ZM76.1816 82.1168H80.1469V78.1168H76.1816V82.1168ZM86.0949 82.1168H90.0602V78.1168H86.0949V82.1168Z" fill="white"/>
    </g>
    <defs>
        <clipPath id="clip0_2202_38503">
            <rect width="98.1416" height="98.1416" fill="white" transform="translate(0.416016 0.667969)"/>
        </clipPath>
    </defs>
</svg>
