<svg width="24" height="25" viewBox="0 0 24 25" fill="none" xmlns="http://www.w3.org/2000/svg">
    <path d="M3.61971 8.99C5.58971 0.330002 18.4197 0.340003 20.3797 9C21.5297 14.08 18.3697 18.38 15.5997 21.04C14.6318 21.9735 13.3395 22.4952 11.9947 22.4952C10.65 22.4952 9.35763 21.9735 8.38971 21.04C5.62971 18.38 2.46971 14.07 3.61971 8.99Z" fill="white"/>
    <path d="M11.9999 13.9295C12.4096 13.9295 12.8153 13.8488 13.1939 13.692C13.5724 13.5352 13.9163 13.3053 14.2061 13.0156C14.4958 12.7259 14.7256 12.382 14.8824 12.0034C15.0392 11.6249 15.1199 11.2192 15.1199 10.8095C15.1199 10.3997 15.0392 9.99402 14.8824 9.61548C14.7256 9.23695 14.4958 8.893 14.2061 8.60328C13.9163 8.31356 13.5724 8.08374 13.1939 7.92695C12.8153 7.77015 12.4096 7.68945 11.9999 7.68945C11.1724 7.68945 10.3788 8.01817 9.79371 8.60328C9.2086 9.18839 8.87988 9.98198 8.87988 10.8095C8.87988 11.6369 9.2086 12.4305 9.79371 13.0156C10.3788 13.6007 11.1724 13.9295 11.9999 13.9295Z" fill="#259E58"/>
</svg>
