<svg width="462" height="93" viewBox="0 0 462 93" fill="none" xmlns="http://www.w3.org/2000/svg">
    <path d="M115.528 46.5C115.528 71.0767 95.605 91 71.0283 91C46.4516 91 26.5283 71.0767 26.5283 46.5C26.5283 21.9233 46.4516 2 71.0283 2C95.605 2 115.528 21.9233 115.528 46.5Z" fill="#0054A6"/>
    <path fill-rule="evenodd" clip-rule="evenodd" d="M71.0283 89C94.5004 89 113.528 69.9721 113.528 46.5C113.528 23.0279 94.5004 4 71.0283 4C47.5562 4 28.5283 23.0279 28.5283 46.5C28.5283 69.9721 47.5562 89 71.0283 89ZM71.0283 91C95.605 91 115.528 71.0767 115.528 46.5C115.528 21.9233 95.605 2 71.0283 2C46.4516 2 26.5283 21.9233 26.5283 46.5C26.5283 71.0767 46.4516 91 71.0283 91Z" fill="white"/>
    <path d="M51.0029 32.0371L0.94043 58.7371L43.7717 45.3871L89.9404 61.5184L140.559 34.8184L97.1717 48.7246L51.0029 32.0371Z" fill="white"/>
    <path fill-rule="evenodd" clip-rule="evenodd" d="M50.7677 31.5959C50.8926 31.5293 51.0399 31.5188 51.173 31.5669L97.1814 48.1965L140.407 34.3422C140.653 34.2631 140.92 34.3857 141.02 34.6247C141.121 34.8636 141.022 35.1397 140.793 35.2606L90.1738 61.9606C90.0509 62.0254 89.9067 62.0362 89.7756 61.9904L43.7628 45.9136L1.0893 59.2145C0.843007 59.2912 0.578742 59.168 0.479219 58.93C0.379696 58.692 0.477592 58.4173 0.705221 58.2959L50.7677 31.5959ZM51.0421 32.5829L5.86006 56.68L43.623 44.9098C43.7254 44.8778 43.8354 44.8797 43.9367 44.9151L89.8999 60.9745L135.291 37.032L97.3244 49.2008C97.2191 49.2345 97.1057 49.2324 97.0018 49.1948L51.0421 32.5829Z" fill="white"/>
    <path d="M150.357 23.6016C150.285 23.1246 150.047 22.7241 149.642 22.4001C149.237 22.0761 148.773 21.9141 148.251 21.9141C147.648 21.9141 147.144 22.0761 146.739 22.4001C146.334 22.7241 146.046 23.1291 145.875 23.6151C145.713 24.0921 145.632 24.6276 145.632 25.2216C145.632 26.1216 145.848 26.8866 146.28 27.5166C146.712 28.1376 147.369 28.4481 148.251 28.4481C148.881 28.4481 149.381 28.2546 149.75 27.8676C150.128 27.4806 150.357 26.9541 150.438 26.2881H152.49C152.382 27.5031 151.946 28.4616 151.181 29.1636C150.416 29.8656 149.439 30.2166 148.251 30.2166C146.802 30.2166 145.65 29.7441 144.795 28.7991C143.94 27.8541 143.513 26.6616 143.513 25.2216C143.513 23.7546 143.94 22.5396 144.795 21.5766C145.65 20.6136 146.802 20.1321 148.251 20.1321C149.34 20.1321 150.272 20.4426 151.046 21.0636C151.829 21.6756 152.283 22.5216 152.409 23.6016H150.357Z" fill="white"/>
    <path d="M157.394 17.5806H159.149L160.634 19.4976H159.054L158.217 18.4041L157.353 19.4976H155.895L157.394 17.5806ZM155.639 25.2216C155.639 26.1216 155.855 26.8866 156.287 27.5166C156.719 28.1376 157.376 28.4481 158.258 28.4481C159.14 28.4481 159.797 28.1376 160.229 27.5166C160.661 26.8866 160.877 26.1216 160.877 25.2216C160.877 24.6276 160.791 24.0921 160.62 23.6151C160.458 23.1291 160.175 22.7241 159.77 22.4001C159.365 22.0761 158.861 21.9141 158.258 21.9141C157.655 21.9141 157.151 22.0761 156.746 22.4001C156.341 22.7241 156.053 23.1291 155.882 23.6151C155.72 24.0921 155.639 24.6276 155.639 25.2216ZM153.519 25.2216C153.519 23.7546 153.947 22.5396 154.802 21.5766C155.657 20.6136 156.809 20.1321 158.258 20.1321C159.707 20.1321 160.859 20.6136 161.714 21.5766C162.569 22.5396 162.996 23.7546 162.996 25.2216C162.996 26.6616 162.569 27.8541 161.714 28.7991C160.859 29.7441 159.707 30.2166 158.258 30.2166C156.809 30.2166 155.657 29.7441 154.802 28.7991C153.947 27.8541 153.519 26.6616 153.519 25.2216Z" fill="white"/>
    <path d="M164.445 20.3616H166.551L170.574 26.8281H170.601V20.3616H172.585V30.0006H170.466L166.456 23.5476H166.429V30.0006H164.445V20.3616Z" fill="white"/>
    <path d="M181.417 28.9071C180.742 29.7801 179.86 30.2166 178.771 30.2166C177.322 30.2166 176.17 29.7441 175.315 28.7991C174.46 27.8541 174.033 26.6616 174.033 25.2216C174.033 23.7546 174.46 22.5396 175.315 21.5766C176.17 20.6136 177.322 20.1321 178.771 20.1321C179.815 20.1321 180.724 20.4381 181.498 21.0501C182.281 21.6531 182.727 22.4811 182.835 23.5341H180.81C180.684 23.0031 180.441 22.6026 180.081 22.3326C179.73 22.0536 179.293 21.9141 178.771 21.9141C178.168 21.9141 177.664 22.0761 177.259 22.4001C176.854 22.7241 176.566 23.1291 176.395 23.6151C176.233 24.0921 176.152 24.6276 176.152 25.2216C176.152 26.1216 176.368 26.8866 176.8 27.5166C177.232 28.1376 177.889 28.4481 178.771 28.4481C180.175 28.4481 180.94 27.7551 181.066 26.3691H178.933V24.7896H182.983V30.0006H181.633L181.417 28.9071Z" fill="white"/>
    <path d="M190.585 22.1436H187.696V20.3616H195.594V22.1436H192.705V30.0006H190.585V22.1436Z" fill="white"/>
    <path d="M199.203 26.2476L195.666 20.3616H198.042L200.296 24.1686L202.537 20.3616H204.9L201.322 26.3016V30.0006H199.203V26.2476Z" fill="white"/>
    <path d="M215.893 23.6016C215.821 23.1246 215.582 22.7241 215.177 22.4001C214.772 22.0761 214.309 21.9141 213.787 21.9141C213.184 21.9141 212.68 22.0761 212.275 22.4001C211.87 22.7241 211.582 23.1291 211.411 23.6151C211.249 24.0921 211.168 24.6276 211.168 25.2216C211.168 26.1216 211.384 26.8866 211.816 27.5166C212.248 28.1376 212.905 28.4481 213.787 28.4481C214.417 28.4481 214.916 28.2546 215.285 27.8676C215.663 27.4806 215.893 26.9541 215.974 26.2881H218.026C217.918 27.5031 217.481 28.4616 216.716 29.1636C215.951 29.8656 214.975 30.2166 213.787 30.2166C212.338 30.2166 211.186 29.7441 210.331 28.7991C209.476 27.8541 209.048 26.6616 209.048 25.2216C209.048 23.7546 209.476 22.5396 210.331 21.5766C211.186 20.6136 212.338 20.1321 213.787 20.1321C214.876 20.1321 215.807 20.4426 216.581 21.0636C217.364 21.6756 217.819 22.5216 217.945 23.6016H215.893Z" fill="white"/>
    <path d="M226.493 25.1271C226.493 24.0471 226.259 23.2101 225.791 22.6161C225.323 22.0131 224.684 21.7116 223.874 21.7116C223.055 21.7116 222.407 22.0131 221.93 22.6161C221.462 23.2101 221.228 24.0471 221.228 25.1271C221.228 26.2161 221.462 27.0621 221.93 27.6651C222.407 28.2591 223.055 28.5561 223.874 28.5561C224.684 28.5561 225.323 28.2591 225.791 27.6651C226.259 27.0621 226.493 26.2161 226.493 25.1271ZM227.047 29.1366C226.318 29.8926 225.26 30.2706 223.874 30.2706C222.479 30.2706 221.417 29.8926 220.688 29.1366C219.698 28.2006 219.203 26.8641 219.203 25.1271C219.203 23.3451 219.698 22.0086 220.688 21.1176C221.417 20.3616 222.479 19.9836 223.874 19.9836C225.26 19.9836 226.318 20.3616 227.047 21.1176C228.028 22.0086 228.518 23.3451 228.518 25.1271C228.518 26.8731 228.028 28.2096 227.047 29.1366ZM224.725 17.2161L226.264 19.1871H224.738L223.888 18.0801L223.024 19.1871H221.485L223.037 17.2161H224.725ZM225.98 16.6221C225.854 16.5411 225.71 16.5006 225.548 16.5006H225.197L225.17 15.9741C225.305 15.9471 225.517 15.9336 225.805 15.9336C226.354 15.9336 226.745 16.1091 226.979 16.4601C227.078 16.5771 227.128 16.7481 227.128 16.9731C227.128 17.4411 226.84 17.7381 226.264 17.8641L226.169 18.1611H225.265L225.305 17.6481C225.881 17.6211 226.169 17.4141 226.169 17.0271C226.169 16.8831 226.106 16.7481 225.98 16.6221Z" fill="white"/>
    <path d="M235.857 24.8976H237.504C238.08 24.8976 238.535 24.7986 238.868 24.6006C239.201 24.3936 239.367 24.0111 239.367 23.4531C239.367 22.8951 239.201 22.5171 238.868 22.3191C238.535 22.1121 238.08 22.0086 237.504 22.0086H235.857V24.8976ZM233.738 20.3616H238.085C239.21 20.3616 240.047 20.6586 240.596 21.2526C241.145 21.8466 241.419 22.5801 241.419 23.4531C241.419 24.3261 241.145 25.0596 240.596 25.6536C240.047 26.2476 239.21 26.5446 238.085 26.5446H235.857V30.0006H233.738V20.3616Z" fill="white"/>
    <path d="M242.742 20.3616H244.862V24.0606H248.763V20.3616H250.883V30.0006H248.763V25.8426H244.862V30.0006H242.742V20.3616Z" fill="white"/>
    <path d="M256.866 22.5081L255.611 26.3286H258.068L256.866 22.5081ZM252.263 30.0006L255.732 20.2806H258.027L261.47 30.0006H259.269L258.635 28.0026H255.057L254.382 30.0006H252.263ZM257.352 17.8371L258.891 19.8081H257.366L256.515 18.7011L255.651 19.8081H254.112L255.665 17.8371H257.352ZM253.748 16.5816L255.017 18.5526H253.653L251.655 16.5816H253.748Z" fill="white"/>
    <path d="M262.61 20.3616H264.716L268.739 26.8281H268.766V20.3616H270.75V30.0006H268.631L264.621 23.5476H264.594V30.0006H262.61V20.3616Z" fill="white"/>
    <path d="M278.493 28.2186H280.383C281.067 28.2186 281.639 27.9846 282.098 27.5166C282.557 27.0486 282.786 26.3196 282.786 25.3296C282.786 24.2946 282.57 23.5071 282.138 22.9671C281.715 22.4181 281.004 22.1436 280.005 22.1436H278.493V28.2186ZM276.374 20.3616H280.532C281.837 20.3616 282.89 20.7711 283.691 21.5901C284.501 22.4091 284.906 23.5881 284.906 25.1271C284.906 26.5851 284.532 27.7641 283.785 28.6641C283.038 29.5551 281.954 30.0006 280.532 30.0006H276.374V20.3616Z" fill="white"/>
    <path d="M288.337 20.2806V30.0006H286.312V20.2806H288.337ZM286.474 32.4711V30.9051H288.189V32.4711H286.474Z" fill="white"/>
    <path d="M296.563 23.6016C296.491 23.1246 296.253 22.7241 295.848 22.4001C295.443 22.0761 294.979 21.9141 294.457 21.9141C293.854 21.9141 293.35 22.0761 292.945 22.4001C292.54 22.7241 292.252 23.1291 292.081 23.6151C291.919 24.0921 291.838 24.6276 291.838 25.2216C291.838 26.1216 292.054 26.8866 292.486 27.5166C292.918 28.1376 293.575 28.4481 294.457 28.4481C295.087 28.4481 295.587 28.2546 295.956 27.8676C296.334 27.4806 296.563 26.9541 296.644 26.2881H298.696C298.588 27.5031 298.152 28.4616 297.387 29.1636C296.622 29.8656 295.645 30.2166 294.457 30.2166C293.008 30.2166 291.856 29.7441 291.001 28.7991C290.146 27.8541 289.719 26.6616 289.719 25.2216C289.719 23.7546 290.146 22.5396 291.001 21.5766C291.856 20.6136 293.008 20.1321 294.457 20.1321C295.546 20.1321 296.478 20.4426 297.252 21.0636C298.035 21.6756 298.489 22.5216 298.615 23.6016H296.563Z" fill="white"/>
    <path d="M300.144 20.3616H302.263V24.0606H306.165V20.3616H308.284V30.0006H306.165V25.8426H302.263V30.0006H300.144V20.3616Z" fill="white"/>
    <path d="M318.389 30.0006H316L312.881 20.3616H315.055L317.201 27.1386H317.228L319.402 20.3616H321.589L318.389 30.0006Z" fill="white"/>
    <path d="M322.505 26.2611V20.2806H324.571V26.2611C324.571 26.9181 324.652 27.4041 324.814 27.7191C325.057 28.2681 325.592 28.5426 326.42 28.5426C327.239 28.5426 327.77 28.2681 328.013 27.7191C328.175 27.4041 328.256 26.9181 328.256 26.2611V20.2806H330.322V26.2611C330.322 27.2871 330.16 28.0881 329.836 28.6641C329.242 29.7261 328.103 30.2571 326.42 30.2571C324.737 30.2571 323.594 29.7261 322.991 28.6641C322.667 28.0881 322.505 27.2871 322.505 26.2611ZM325.556 32.4036V30.8511H327.271V32.4036H325.556Z" fill="white"/>
    <path d="M338.03 28.2186H339.92C340.604 28.2186 341.176 27.9846 341.635 27.5166C342.094 27.0486 342.323 26.3196 342.323 25.3296C342.323 24.2946 342.107 23.5071 341.675 22.9671C341.252 22.4181 340.541 22.1436 339.542 22.1436H338.03V28.2186ZM335.911 20.3616H340.069C341.374 20.3616 342.427 20.7711 343.228 21.5901C344.038 22.4091 344.443 23.5881 344.443 25.1271C344.443 26.5851 344.069 27.7641 343.322 28.6641C342.575 29.5551 341.491 30.0006 340.069 30.0006H335.911V20.3616Z" fill="white"/>
    <path d="M354.098 26.3556C354.098 27.6336 353.738 28.5966 353.018 29.2446C352.307 29.8926 351.295 30.2166 349.981 30.2166C348.658 30.2166 347.641 29.8971 346.93 29.2581C346.228 28.6191 345.877 27.6516 345.877 26.3556V20.3616H347.996V26.3556C347.996 26.9856 348.131 27.4941 348.401 27.8811C348.68 28.2591 349.207 28.4481 349.981 28.4481C350.719 28.4481 351.236 28.2861 351.533 27.9621C351.83 27.6291 351.979 27.0936 351.979 26.3556V20.3616H354.098V26.3556Z" fill="white"/>
    <path d="M359.681 20.3616H361.8V28.2186H366.498V30.0006H359.681V20.3616Z" fill="white"/>
    <path d="M369.641 20.2806V30.0006H367.616V20.2806H369.641ZM367.778 32.4711V30.9051H369.492V32.4711H367.778Z" fill="white"/>
    <path d="M377.866 23.6016C377.794 23.1246 377.556 22.7241 377.151 22.4001C376.746 22.0761 376.282 21.9141 375.76 21.9141C375.157 21.9141 374.653 22.0761 374.248 22.4001C373.843 22.7241 373.555 23.1291 373.384 23.6151C373.222 24.0921 373.141 24.6276 373.141 25.2216C373.141 26.1216 373.357 26.8866 373.789 27.5166C374.221 28.1376 374.878 28.4481 375.76 28.4481C376.39 28.4481 376.89 28.2546 377.259 27.8676C377.637 27.4806 377.866 26.9541 377.947 26.2881H379.999C379.891 27.5031 379.455 28.4616 378.69 29.1636C377.925 29.8656 376.948 30.2166 375.76 30.2166C374.311 30.2166 373.159 29.7441 372.304 28.7991C371.449 27.8541 371.022 26.6616 371.022 25.2216C371.022 23.7546 371.449 22.5396 372.304 21.5766C373.159 20.6136 374.311 20.1321 375.76 20.1321C376.849 20.1321 377.781 20.4426 378.555 21.0636C379.338 21.6756 379.792 22.5216 379.918 23.6016H377.866Z" fill="white"/>
    <path d="M381.447 20.3616H383.566V24.0606H387.468V20.3616H389.587V30.0006H387.468V25.8426H383.566V30.0006H381.447V20.3616Z" fill="white"/>
    <path d="M397.33 24.8976H398.977C399.553 24.8976 400.007 24.7986 400.34 24.6006C400.673 24.3936 400.84 24.0111 400.84 23.4531C400.84 22.8951 400.673 22.5171 400.34 22.3191C400.007 22.1121 399.553 22.0086 398.977 22.0086H397.33V24.8976ZM395.21 20.3616H399.557C400.682 20.3616 401.519 20.6586 402.068 21.2526C402.617 21.8466 402.892 22.5801 402.892 23.4531C402.892 24.3261 402.617 25.0596 402.068 25.6536C401.519 26.2476 400.682 26.5446 399.557 26.5446H397.33V30.0006H395.21V20.3616Z" fill="white"/>
    <path d="M404.215 20.3616H406.334V24.0606H410.236V20.3616H412.355V30.0006H410.236V25.8426H406.334V30.0006H404.215V20.3616Z" fill="white"/>
    <path d="M418.609 19.4976H417.272L418.568 17.5806H420.688L418.609 19.4976ZM422.402 26.3556C422.402 27.6336 422.042 28.5966 421.322 29.2446C420.611 29.8926 419.599 30.2166 418.285 30.2166C416.962 30.2166 415.945 29.8971 415.234 29.2581C414.532 28.6191 414.181 27.6516 414.181 26.3556V20.3616H416.3V26.3556C416.3 26.9856 416.435 27.4941 416.705 27.8811C416.984 28.2591 417.511 28.4481 418.285 28.4481C419.023 28.4481 419.54 28.2861 419.837 27.9621C420.134 27.6291 420.283 27.0936 420.283 26.3556V20.3616H422.402V26.3556Z" fill="white"/>
    <path d="M430.118 22.1436H427.229V20.3616H435.126V22.1436H432.237V30.0006H430.118V22.1436Z" fill="white"/>
    <path d="M436.238 20.3616H438.357V24.0606H442.259V20.3616H444.378V30.0006H442.259V25.8426H438.357V30.0006H436.238V20.3616Z" fill="white"/>
    <path d="M453.264 25.1271C453.264 24.0471 453.03 23.2101 452.562 22.6161C452.094 22.0131 451.455 21.7116 450.645 21.7116C449.826 21.7116 449.178 22.0131 448.701 22.6161C448.233 23.2101 447.999 24.0471 447.999 25.1271C447.999 26.2161 448.233 27.0621 448.701 27.6651C449.178 28.2591 449.826 28.5561 450.645 28.5561C451.455 28.5561 452.094 28.2591 452.562 27.6651C453.03 27.0621 453.264 26.2161 453.264 25.1271ZM453.818 29.1366C453.089 29.8926 452.031 30.2706 450.645 30.2706C449.25 30.2706 448.188 29.8926 447.459 29.1366C446.469 28.2006 445.974 26.8641 445.974 25.1271C445.974 23.3451 446.469 22.0086 447.459 21.1176C448.188 20.3616 449.25 19.9836 450.645 19.9836C452.031 19.9836 453.089 20.3616 453.818 21.1176C454.799 22.0086 455.289 23.3451 455.289 25.1271C455.289 26.8731 454.799 28.2096 453.818 29.1366ZM449.781 32.4306V30.8646H451.496V32.4306H449.781Z" fill="white"/>
    <path d="M148.91 58.7691H153.18C154.673 58.7691 155.852 58.5124 156.715 57.9991C157.578 57.4624 158.01 56.4707 158.01 55.0241C158.01 53.5774 157.578 52.5974 156.715 52.0841C155.852 51.5474 154.673 51.2791 153.18 51.2791H148.91V58.7691ZM143.415 47.0091H154.685C157.602 47.0091 159.772 47.7791 161.195 49.3191C162.618 50.8591 163.33 52.7607 163.33 55.0241C163.33 57.2874 162.618 59.1891 161.195 60.7291C159.772 62.2691 157.602 63.0391 154.685 63.0391H148.91V71.9991H143.415V47.0091Z" fill="#99FFFF"/>
    <path d="M168.16 47.0091H173.655V56.5991H183.77V47.0091H189.265V71.9991H183.77V61.2191H173.655V71.9991H168.16V47.0091Z" fill="#99FFFF"/>
    <path d="M216.712 62.5491C216.712 65.8624 215.779 68.3591 213.912 70.0391C212.069 71.7191 209.444 72.5591 206.037 72.5591C202.607 72.5591 199.97 71.7307 198.127 70.0741C196.307 68.4174 195.397 65.9091 195.397 62.5491V47.0091H200.892V62.5491C200.892 64.1824 201.242 65.5007 201.942 66.5041C202.665 67.4841 204.03 67.9741 206.037 67.9741C207.95 67.9741 209.292 67.5541 210.062 66.7141C210.832 65.8507 211.217 64.4624 211.217 62.5491V47.0091H216.712V62.5491Z" fill="#99FFFF"/>
    <path d="M228.375 51.6291H220.885V47.0091H241.36V51.6291H233.87V71.9991H228.375V51.6291Z" fill="#99FFFF"/>
    <path d="M245.641 47.0091H251.136V56.5991H261.251V47.0091H266.746V71.9991H261.251V61.2191H251.136V71.9991H245.641V47.0091Z" fill="#99FFFF"/>
    <path d="M277.393 59.6091C277.393 61.9424 277.953 63.9257 279.073 65.5591C280.193 67.1691 281.897 67.9741 284.183 67.9741C286.47 67.9741 288.173 67.1691 289.293 65.5591C290.413 63.9257 290.973 61.9424 290.973 59.6091C290.973 58.0691 290.752 56.6807 290.308 55.4441C289.888 54.1841 289.153 53.1341 288.103 52.2941C287.053 51.4541 285.747 51.0341 284.183 51.0341C282.62 51.0341 281.313 51.4541 280.263 52.2941C279.213 53.1341 278.467 54.1841 278.023 55.4441C277.603 56.6807 277.393 58.0691 277.393 59.6091ZM271.898 59.6091C271.898 55.8057 273.007 52.6557 275.223 50.1591C277.44 47.6624 280.427 46.4141 284.183 46.4141C287.94 46.4141 290.927 47.6624 293.143 50.1591C295.36 52.6557 296.468 55.8057 296.468 59.6091C296.468 63.3424 295.36 66.4341 293.143 68.8841C290.927 71.3341 287.94 72.5591 284.183 72.5591C280.427 72.5591 277.44 71.3341 275.223 68.8841C273.007 66.4341 271.898 63.3424 271.898 59.6091Z" fill="#99FFFF"/>
    <path d="M307.155 51.6291H299.665V47.0091H320.14V51.6291H312.65V71.9991H307.155V51.6291Z" fill="#99FFFF"/>
    <path d="M328.831 59.6091C328.831 61.9424 329.391 63.9257 330.511 65.5591C331.631 67.1691 333.334 67.9741 335.621 67.9741C337.908 67.9741 339.611 67.1691 340.731 65.5591C341.851 63.9257 342.411 61.9424 342.411 59.6091C342.411 58.0691 342.189 56.6807 341.746 55.4441C341.326 54.1841 340.591 53.1341 339.541 52.2941C338.491 51.4541 337.184 51.0341 335.621 51.0341C334.058 51.0341 332.751 51.4541 331.701 52.2941C330.651 53.1341 329.904 54.1841 329.461 55.4441C329.041 56.6807 328.831 58.0691 328.831 59.6091ZM323.336 59.6091C323.336 55.8057 324.444 52.6557 326.661 50.1591C328.878 47.6624 331.864 46.4141 335.621 46.4141C339.378 46.4141 342.364 47.6624 344.581 50.1591C346.798 52.6557 347.906 55.8057 347.906 59.6091C347.906 63.3424 346.798 66.4341 344.581 68.8841C342.364 71.3341 339.378 72.5591 335.621 72.5591C331.864 72.5591 328.878 71.3341 326.661 68.8841C324.444 66.4341 323.336 63.3424 323.336 59.6091Z" fill="#99FFFF"/>
    <path d="M374.272 62.5491C374.272 65.8624 373.339 68.3591 371.472 70.0391C369.629 71.7191 367.004 72.5591 363.597 72.5591C360.167 72.5591 357.531 71.7307 355.687 70.0741C353.867 68.4174 352.957 65.9091 352.957 62.5491V47.0091H358.452V62.5491C358.452 64.1824 358.802 65.5007 359.502 66.5041C360.226 67.4841 361.591 67.9741 363.597 67.9741C365.511 67.9741 366.852 67.5541 367.622 66.7141C368.392 65.8507 368.777 64.4624 368.777 62.5491V47.0091H374.272V62.5491Z" fill="#99FFFF"/>
    <path d="M385.9 58.3141H391.92C393.203 58.3141 394.148 58.0341 394.755 57.4741C395.385 56.8907 395.7 55.9807 395.7 54.7441C395.7 52.4341 394.44 51.2791 391.92 51.2791H385.9V58.3141ZM380.405 47.0091H393.88C396.073 47.0091 397.835 47.6741 399.165 49.0041C400.518 50.3341 401.195 51.9674 401.195 53.9041C401.195 57.0307 399.876 59.1191 397.24 60.1691V60.2391C399.433 60.8457 400.646 62.7941 400.88 66.0841C400.88 66.2241 400.891 66.5741 400.915 67.1341C400.961 67.6941 400.996 68.1491 401.02 68.4991C401.043 68.8257 401.09 69.2457 401.16 69.7591C401.23 70.2491 401.323 70.6807 401.44 71.0541C401.58 71.4274 401.743 71.7424 401.93 71.9991H396.435C396.248 71.5324 396.108 70.9724 396.015 70.3191C395.921 69.6424 395.84 68.8607 395.77 67.9741C395.7 67.0874 395.63 66.4341 395.56 66.0141C395.373 64.6607 394.965 63.6924 394.335 63.1091C393.728 62.5257 392.748 62.2341 391.395 62.2341H385.9V71.9991H380.405V47.0091Z" fill="#99FFFF"/>
    <path d="M407.063 47.0091H412.558V71.9991H407.063V47.0091Z" fill="#99FFFF"/>
    <path d="M422.531 63.7041C422.531 65.2674 423.044 66.4341 424.071 67.2041C425.121 67.9507 426.451 68.3241 428.061 68.3241C428.831 68.3241 429.542 68.2541 430.196 68.1141C430.872 67.9507 431.491 67.6241 432.051 67.1341C432.634 66.6441 432.926 66.0024 432.926 65.2091C432.926 64.7657 432.809 64.3691 432.576 64.0191C432.366 63.6691 432.121 63.3891 431.841 63.1791C431.561 62.9457 431.129 62.7241 430.546 62.5141C429.962 62.2807 429.472 62.1174 429.076 62.0241C428.679 61.9074 428.084 61.7557 427.291 61.5691C426.497 61.3591 425.902 61.1957 425.506 61.0791C424.456 60.8224 423.534 60.5424 422.741 60.2391C421.971 59.9124 421.201 59.4807 420.431 58.9441C419.661 58.4074 419.066 57.7191 418.646 56.8791C418.249 56.0391 418.051 55.0707 418.051 53.9741C418.051 51.5707 418.984 49.7157 420.851 48.4091C422.717 47.0791 424.899 46.4141 427.396 46.4141C429.239 46.4141 430.884 46.6707 432.331 47.1841C433.777 47.6974 434.979 48.5841 435.936 49.8441C436.916 51.0807 437.406 52.6207 437.406 54.4641H432.086C431.946 51.9441 430.301 50.6841 427.151 50.6841C426.147 50.6841 425.261 50.9174 424.491 51.3841C423.744 51.8507 423.371 52.5624 423.371 53.5191C423.371 54.4524 423.767 55.1057 424.561 55.4791C425.377 55.8291 427.466 56.4357 430.826 57.2991C435.772 58.3257 438.246 60.7524 438.246 64.5791C438.246 66.9591 437.336 68.8841 435.516 70.3541C433.719 71.8241 431.164 72.5591 427.851 72.5591C426.427 72.5591 425.086 72.3841 423.826 72.0341C422.566 71.6841 421.434 71.1707 420.431 70.4941C419.427 69.7941 418.634 68.8607 418.051 67.6941C417.467 66.5274 417.187 65.1974 417.211 63.7041H422.531Z" fill="#99FFFF"/>
    <path d="M448.445 51.6291H440.955V47.0091H461.43V51.6291H453.94V71.9991H448.445V51.6291Z" fill="#99FFFF"/>
</svg>
